<ttFont>
          <CharString index="0">
            0 -19 4 -26 -146 -90 -122 -141 -121 66 -68 102 137 85 123 129 27 vhcurveto
            65 13 45 23 0 vvcurveto
            0 -3 43 -8 10 vhcurveto
            0 -51 -15 -43 -2 vhcurveto
            -234 -131 rmoveto
            75 26 83 22 23 vhcurveto
            5 3 10 0 0 vvcurveto
            -2 -12 -1 -13 -10 vvcurveto
            -69 41 -29 61 vhcurveto
            -81 -18 -54 -63 -43 hhcurveto
            -31 -16 35 58 hvcurveto
            endchar
          </CharString>
          <CharString index="1">
            rmoveto
            122 -66 146 -195 -65 callgsubr
            -168 92 -118 159 269 105 266 188 vhcurveto
            -345 -378 rmoveto
            -81 -3 92 101 164 49 213 105 72 8 -95 -69 -157 -38 -249 -112 hvcurveto
            return
          </CharString>
          <CharString index="2">
            673 442 -106 callsubr
            return
          </CharString>
          <CharString index="3">
            -45 -53 -132 -76 vvcurveto
            -53 26 -40 69 56 63 26 24 40 vhcurveto
            -37 11 31 -13 35 hhcurveto
            59 86 36 29 36 hvcurveto
            -71 callgsubr
            -40 -13 -9 -4 -5 3 17 vhcurveto
            4 57 50 190 80 vvcurveto
            -27 hlineto
            -47 -71 -3 -17 -39 hvcurveto
            -94 -40 -145 -13 -71 vhcurveto
            -7 -14 -16 -6 -13 hhcurveto
            -14 -11 6 20 hvcurveto
            return
          </CharString>
          <CharString index="4">
            -1 268 -2 78 -14 54 rrcurveto
            -10 37 -10 9 0 vvcurveto
            0 -30 4 -47 -77 -86 -11 -13 -48 -33 callgsubr
            29 -34 -25 vvcurveto
            -7 -2 -7 -1 -4 vhcurveto
            -58 -180 -122 -207 -67 -184 rrcurveto
            return
          </CharString>
          <CharString index="5">
            282 299 rmoveto
            35 hlineto
            7 -57 15 -91 20 -65 rrcurveto
            -73 22 51 -25 51 hhcurveto
            72 67 29 38 50 hvcurveto
            -24 54 rlineto
            0 -45 -16 -17 -25 -42 87 151 -45 vhcurveto
            102 46 52 88 92 vvcurveto
            105 -88 48 -128 -166 -136 -24 0 vhcurveto
            -3 -22 rlineto
            0 47 -48 -29 -122 -113 -337 -130 vvcurveto
            53 -9 86 5 57 25 rrcurveto
            57 21 111 24 112 vhcurveto
            return
          </CharString>
          <CharString index="6">
            -96 callsubr
            hintmask 11100000
            -96 callgsubr
            return
          </CharString>
          <CharString index="7">
            20 177 rmoveto
            -121 65 -68 115 134 89 99 0 vhcurveto
            -32 43 rlineto
            0 -64 -42 -50 -38 -22 18 48 -8 vhcurveto
            0 243 24 143 vvcurveto
            73 -69 49 -99 -142 -122 -87 -179 vhcurveto
            185 43 rmoveto
            103 4 37 47 28 hhcurveto
            9 9 -4 -19 -47 -48 -74 -39 -6 hvcurveto
            return
          </CharString>
          <CharString index="8">
            hstem
            41 196 199 192 vstem
            -102 callsubr
            return
          </CharString>
          <CharString index="9">
            rmoveto
            hintmask 11010000
            -101 callsubr
            return
          </CharString>
          <CharString index="10">
            rmoveto
            95 17 121 25 44 20 rrcurveto
            27 12 10 15 24 6 callsubr
            56 -12 17 vhcurveto
            -90 -57 -78 -47 -106 -52 rrcurveto
            return
          </CharString>
          <CharString index="11">
            66 50 110 85 vvcurveto
            44 -16 18 0 -150 -52 -16 0 vhcurveto
            -3 -17 rlineto
            0 34 -40 -32 vvcurveto
            return
          </CharString>
          <CharString index="12">
            rmoveto
            47 20 143 31 95 vhcurveto
            -87 35 -72 0 0 vvcurveto
            -5 -8 -4 -9 -4 -9 rrcurveto
            20 -37 -35 9 -34 hhcurveto
            return
          </CharString>
          <CharString index="13">
            49 -26 47 -92 15 vhcurveto
            -42 -30 -30 -51 -51 vvcurveto
            72 -50 -5 -29 -13 -40 -31 -48 rlinecurve
            54 -29 rlineto
            35 35 78 115 67 vvcurveto
            return
          </CharString>
          <CharString index="14">
            501 -97 callsubr
            return
          </CharString>
          <CharString index="15">
            -91 callgsubr
            -27 27 -53 -65 callsubr
            vhcurveto
            return
          </CharString>
          <CharString index="16">
            10 callsubr
            -90 callgsubr
            hintmask 11110000
            -97 callgsubr
          </CharString>
          <CharString index="17">
            -43 31 -29 45 54 37 36 46 return
          </CharString>
          <CharString index="18">
            rmoveto
            53 28 72 35 65 19 46 -20 47 -30 46 -30 42 36 rcurveline
            34 -17 -79 131 -46 hhcurveto
            -53 -137 -92 -64 -71 hvcurveto
            return
          </CharString>
          <CharString index="19">
            rmoveto
            -92 callsubr
            211 hmoveto
            -92 callgsubr
            return
          </CharString>
          <CharString index="20">
            46 55 143 80 vvcurveto
            30 -8 17 0 -23 -113 -3 -58 callsubr
            -17 -20 vvcurveto
            endchar
          </CharString>
          <CharString index="21">
            63 44 105 66 vvcurveto
            57 -32 42 -58 -55 -67 -37 -19 -31 vhcurveto
            -4 25 -10 23 -83 callsubr
            endchar
          </CharString>
          <CharString index="22">
            501 -89 callsubr
            return
          </CharString>
          <CharString index="23">
            248 rmoveto
            -25 1 -55 5 -40 vhcurveto
            -83 10 26 -57 75 hhcurveto
            63 82 40 22 27 hvcurveto
            -22 49 rlineto
            0 -36 -13 -12 -18 -19 30 108 -25 vhcurveto
            74 21 55 37 66 vvcurveto
            62 -49 33 -70 return
          </CharString>
          <CharString index="24">
            0 vvcurveto
            -147 -59 -70 callsubr
            -31 -42 -52 -57 -171 -110 vvcurveto
            17 hlineto
            42 87 4 15 39 hvcurveto
            return
          </CharString>
          <CharString index="25">
            -101 -11 -101 -72 -120 vvcurveto
            -133 126 -55 105 115 108 67 74 54 vhcurveto
            endchar
          </CharString>
          <CharString index="26">
            265 -84 callsubr
            -56 -55 -22 -20 -38 vhcurveto
            25 115 20 108 57 vvcurveto
            41 -10 12 0 -24 -64 -2 -25 -92 vhcurveto
            0 5 -12 -34 vvcurveto
            return
          </CharString>
          <CharString index="27">
            698 rmoveto
            -44 20 -42 13 -46 4 -112 -278 -172 -170 -94 -258 34 -26 62 -14 37 -1 97 278 178 180 109 249 rrcurveto
            return
          </CharString>
          <CharString index="28">
            101 92 246 116 vvcurveto
            79 -54 41 -67 -72 -78 -44 -44 -60 vhcurveto
            2 vlineto
            48 -18 38 0 -154 -62 -4 callgsubr
            41 -46 -38 vvcurveto
            return
          </CharString>
          <CharString index="29">
            547 -81 callgsubr
            return
          </CharString>
          <CharString index="30">
            -87 -44 -115 -71 vvcurveto
            -53 27 -40 67 53 58 -24 callsubr
            -89 -20 -105 -31 -82 vvcurveto
            -55 54 -27 52 143 70 113 139 42 -55 callgsubr
            -159 -557 rmoveto
            return
          </CharString>
          <CharString index="31">
            -94 callsubr
            endchar
          </CharString>
          <CharString index="32">
            -98 callgsubr
            endchar
          </CharString>
          <CharString index="33">
            rmoveto
            77 -4 -21 54 -71 hhcurveto
            -14 -14 -2 -5 -17 hvcurveto
            return
          </CharString>
          <CharString index="34">
            -55 -86 29 -47 hhcurveto
            -94 -23 -79 -58 -6 hvcurveto
            54 -14 rlineto
            29 20 20 8 28 hhcurveto
            return
          </CharString>
          <CharString index="35">
            -47 -42 -113 -71 vvcurveto
            -67 38 -21 47 62 78 36 29 38 vhcurveto
            -71 callgsubr
            -42 -14 -11 -3 -4 1 19 vhcurveto
            return
          </CharString>
          <CharString index="36">
            rmoveto
            -41 -42 -67 -33 -58 hhcurveto
            -64 callsubr
            return
          </CharString>
          <CharString index="37">
            -19 0 hvcurveto
            -2 -15 rlineto
            0 36 return
          </CharString>
          <CharString index="38">
            -51 37 -35 56 66 44 43 55 44 -32 32 -65 -56 -50 -38 -50 vhcurveto
            return
          </CharString>
          <CharString index="39">
            236 20 rmoveto
            110 73 259 29 149 vhcurveto
            23 37 36 18 26 hhcurveto
            31 14 -17 -34 hvcurveto
            return
          </CharString>
          <CharString index="40">
            vvcurveto
            -46 33 -27 46 81 66 67 0 vhcurveto
            -28 41 rlineto
            -7 -12 -32 -16 -24 hhcurveto
            -9 -6 5 13 return
          </CharString>
          <CharString index="41">
            rmoveto
            83 21 81 64 6 hvcurveto
            -50 10 rlineto
            -30 -16 -14 -7 -24 hhcurveto
            return
          </CharString>
          <CharString index="42">
            -45 -42 -32 -42 return
          </CharString>
          <CharString index="43">
            -47 -54 21 69 95 103 49 82 hvcurveto
            8 58 rlineto
            return
          </CharString>
          <CharString index="44">
            185 -143 143 -143 187 return
          </CharString>
          <CharString index="45">
            829 rmoveto
            -92 callsubr
            227 hmoveto
            -92 callgsubr
            return
          </CharString>
          <CharString index="46">
            190 vstem
            291 624 -52 callsubr
            return
          </CharString>
          <CharString index="47">
            4 41 1 rrcurveto
            -17 vlineto
            -63 -6 -79 -13 -97 vhcurveto
            -227 -30 -33 -47 -35 hhcurveto
            -27 return
          </CharString>
          <CharString index="48">
            -45 callgsubr
            58 119 101 254 100 -37 callsubr
            return
          </CharString>
          <CharString index="49">
            -17 -77 vhcurveto
            -2 -15 rlineto
            26 -30 10 return
          </CharString>
          <CharString index="50">
            rmoveto
            85 36 129 16 82 vhcurveto
            10 15 19 10 14 hhcurveto
            7 7 -3 -19 hvcurveto
            return
          </CharString>
          <CharString index="51">
            -121 -26 -119 -40 -98 vvcurveto
            -59 52 -38 63 vhcurveto
            -16 89 rmoveto
            -14 -11 8 14 36 68 33 75 11 hvcurveto
            -41 -17 -53 -61 -48 hhcurveto
            endchar
          </CharString>
          <CharString index="52">
            46 -13 112 388 223 -69 69 return
          </CharString>
          <CharString index="53">
            41 rmoveto
            52 -35 51 -90 17 vhcurveto
            -45 -32 -32 -56 -54 vvcurveto
            79 -54 -5 -30 -16 -43 -33 -51 rlinecurve
            51 -31 rlineto
            37 38 89 122 71 vvcurveto
            return
          </CharString>
          <CharString index="54">
            hhcurveto
            -9 -4 12 16 hvcurveto
            endchar
          </CharString>
          <CharString index="55">
            rmoveto
            -94 callsubr
            return
          </CharString>
          <CharString index="56">
            vvcurveto
            -29 6 -3 0 81 102 27 0 vhcurveto
            0 -1 9 15 vvcurveto
            66 21 98 24 102 vhcurveto
            10 15 22 10 14 hhcurveto
            10 5 -5 -17 hvcurveto
            return
          </CharString>
          <CharString index="57">
            rmoveto
            76 61 133 116 32 vvcurveto
            43 -142 128 -39 27 vhcurveto
            return
          </CharString>
          <CharString index="58">
            279 299 rmoveto
            -25 31 59 -19 43 hhcurveto
            14 17 14 28 32 vvcurveto
            return
          </CharString>
          <CharString index="59">
            48 196 234 195 return
          </CharString>
          <CharString index="60">
            rmoveto
            -56 -20 -80 -28 -68 -13 -51 16 -52 22 -51 21 -39 -37 rcurveline
            -29 20 95 -112 40 hhcurveto
            50 147 80 52 74 hvcurveto
            return
          </CharString>
          <CharString index="61">
            rmoveto
            53 54 42 59 56 vvcurveto
            47 -52 31 -52 vhcurveto
            -30 -6 -35 -42 -22 callgsubr
            -38 -12 -26 rrcurveto
            endchar
          </CharString>
          <CharString index="62">
            -86 -112 -391 -114 vvcurveto
            17 hlineto
            45 94 -3 callsubr
            return
          </CharString>
          <CharString index="63">
            139 vstem
            153 427 rmoveto
            26 56 60 148 43 vvcurveto
            45 -38 13 -53 -12 -13 -1 -1 -13 vhcurveto
            -19 -292 rlineto
            return
          </CharString>
          <CharString index="64">
            rmoveto
            60 53 41 64 56 vvcurveto
            47 -56 37 -52 vhcurveto
            -30 -6 -37 -48 -22 callgsubr
            -41 -12 -26 rrcurveto
            return
          </CharString>
          <CharString index="65">
            -49 callsubr
            65 -59 46 -102 -156 -103 -110 -154 return
          </CharString>
          <CharString index="66">
            -20 -63 callgsubr
            hintmask 11010100
            return
          </CharString>
          <CharString index="67">
            -41 25 -44 34 -68 17 -47 rlinecurve
            -22 -44 -46 -69 -37 -53 rrcurveto
            return
          </CharString>
          <CharString index="68">
            -49 -42 -101 -77 vvcurveto
            -72 37 -20 44 61 85 39 26 36 vhcurveto
            -71 callgsubr
            -42 -14 -10 -4 -4 3 19 vhcurveto
            return
          </CharString>
          <CharString index="69">
            176 -12 76 570 76 return
          </CharString>
          <CharString index="70">
            vvcurveto
            52 -16 25 0 -173 -55 -25 0 vhcurveto
            -3 -20 rlineto
            return
          </CharString>
          <CharString index="71">
            -6 -6 -1 -5 hhcurveto
            -54 -2 -41 -1 -35 -5 -86 -63 rcurveline
            return
          </CharString>
          <CharString index="72">
            206 -12 132 590 -20 return
          </CharString>
          <CharString index="73">
            -26 -13 42 119 -1 return
          </CharString>
          <CharString index="74">
            72 76 215 126 vvcurveto
            41 -19 33 0 -152 -62 -20 -69 callgsubr
            39 -45 -42 vvcurveto
            return
          </CharString>
          <CharString index="75">
            -122 -73 -179 -105 vvcurveto
            -85 51 -39 66 58 95 30 27 50 vhcurveto
            -7 -25 -8 -30 -8 -18 rrcurveto
            return
          </CharString>
          <CharString index="76">
            rmoveto
            27 21 23 8 20 hhcurveto
            18 17 -10 -22 -45 -40 -12 -18 -3 hvcurveto
            -17 -3 -14 -1 0 vvcurveto
            return
          </CharString>
          <CharString index="77">
            rmoveto
            17 38 37 59 24 38 1 -28 -25 -98 -3 -13 -15 2 -20 1 -16 1 rrcurveto
            endchar
          </CharString>
          <CharString index="78">
            -49 26 -47 92 -15 vhcurveto
            42 30 30 51 51 vvcurveto
            return
          </CharString>
          <CharString index="79">
            137 -137 187 return
          </CharString>
          <CharString index="80">
            329 681 rmoveto
            36 -7 17 0 -24 -68 -2 -25 -90 vhcurveto
            2 -10 2 -15 -21 vvcurveto
            return
          </CharString>
          <CharString index="81">
            627 rmoveto
            -61 40 -50 80 80 40 50 61 62 -40 48 -80 -80 -40 -48 -62 vhcurveto
            return
          </CharString>
          <CharString index="82">
            -17 -9 -16 callsubr
            -58 -22 -41 -23 -19 hhcurveto
            endchar
          </CharString>
          <CharString index="83">
            21 21 39 vhcurveto
            -3 -18 -4 -17 -3 -14 rrcurveto
            return
          </CharString>
          <CharString index="84">
            hstemhm
            82 -28 callsubr
            return
          </CharString>
          <CharString index="85">
            hstem
            29 188 70 180 vstem
            return
          </CharString>
          <CharString index="86">
            -20 rlineto
            0 return
          </CharString>
          <CharString index="87">
            68 20 127 45 15 6 -23 -32 -84 -24 -139 -38 -14 -10 25 58 vhcurveto
            return
          </CharString>
          <CharString index="88">
            -20 hstemhm
            25 188 -69 185 -47 -63 callsubr
            return
          </CharString>
          <CharString index="89">
            rmoveto
            -40 24 -31 48 46 37 37 43 39 -23 30 -48 -44 -40 -33 -45 vhcurveto
            return
          </CharString>
          <CharString index="90">
            7 hhcurveto
            14 15 -42 -2 5 hvcurveto
            74 8 return
          </CharString>
          <CharString index="91">
            9 14 -1 hvcurveto
            33 57 16 52 9 vhcurveto
            return
          </CharString>
          <CharString index="92">
            hstemhm
            35 185 return
          </CharString>
          <CharString index="93">
            -10 0 hvcurveto
            -19 -97 rlineto
            hintmask 11010000
            -10 callsubr
            return
          </CharString>
          <CharString index="94">
            428 -12 callsubr
            return
          </CharString>
          <CharString index="95">
            -21 328 -20 hstem
            return
          </CharString>
          <CharString index="96">
            45 45 -9 callsubr
            -54 -63 -11 -14 -66 vhcurveto
            return
          </CharString>
          <CharString index="97">
            -31 36 82 -24 52 hhcurveto
            21 22 13 return
          </CharString>
          <CharString index="98">
            140 81 vvcurveto
            25 -8 14 0 return
          </CharString>
          <CharString index="99">
            9 3 callsubr
            return
          </CharString>
          <CharString index="100">
            12 18 hhcurveto
            18 14 -12 -27 -55 -55 -67 -41 -29 hvcurveto
            return
          </CharString>
          <CharString index="101" raw="1">
            f8ee7b1d 0b  
          </CharString>
          <CharString index="102">
            116 -21 407 -20 hstem
            return
          </CharString>
          <CharString index="103">
            6 -224 74 148 101 return
          </CharString>
          <CharString index="104">
            3 23 39 hvcurveto
            return
          </CharString>
          <CharString index="105">
            -20 -15 callsubr
            return
          </CharString>
          <CharString index="106">
            -20 hstemhm
            82 137 return
          </CharString>
          <CharString index="107">
            -17 -13 8 23 hvcurveto
            return
          </CharString>
          <CharString index="108">
            154 hstem
            121 170 vstem
            121 return
          </CharString>
          <CharString index="109">
            -24 158 -125 -21 return
          </CharString>
          <CharString index="110">
            -21 722 -20 return
          </CharString>
          <CharString index="111">
            171 -224 89 188 120 return
          </CharString>
          <CharString index="112">
            -16 -9 -35 hvcurveto
            -3 -23 rlineto
            0 46 return
          </CharString>
          <CharString index="113">
            vvcurveto
            20 -28 return
          </CharString>
          <CharString index="114">
            235 -73 73 hstemhm
            48 196 return
          </CharString>
          <CharString index="115">
            -20 hstem
            109 95 vstem
            204 return
          </CharString>
          <CharString index="116">
            167 60 167 return
          </CharString>
          <CharString index="117">
            rmoveto
            hintmask 11101000
            return
          </CharString>
          <CharString index="118">
            -43 -38 vvcurveto
            return
          </CharString>
        <CharString name=".notdef">
          1 endchar
        </CharString>
        <CharString name=".null">
          -499 endchar
        </CharString>
        <CharString name="A">
          112 -72 callgsubr
          hstemhm
          338 182 hintmask 10111000
          95 13 -106 callgsubr
          hintmask 01111000
          -102 callgsubr
        </CharString>
        <CharString name="AE">
          249 -12 105 -81 -21 309 82 235 89 -74 74 4 -20 hstemhm
          305 190 hintmask 10101010
          497 292 rmoveto
          0 39 8 48 53 33 -6 -3 18 vhcurveto
          0 17 43 39 vvcurveto
          0 -14 9 -71 -62 -55 -7 0 70 31 184 0 vhcurveto
          2 14 -6 1 16 hhcurveto
          hintmask 10110010
          61 62 -15 24 hhcurveto
          21 15 12 37 17 -3 25 0 hvcurveto
          -1 -21 -23 -1 -30 hhcurveto
          hintmask 01100110
          -60 -100 4 -67 hhcurveto
          -115 -68 -12 -12 -48 hvcurveto
          -5 -21 callsubr
          26 -34 -21 vvcurveto
          -57 -230 -429 -27 -107 vhcurveto
          -14 21 26 -13 30 hhcurveto
          25 14 5 19 8 hvcurveto
          24 71 11 47 33 87 36 21 71 20 37 1 rrcurveto
          -2 -24 1 -23 -18 vvcurveto
          hintmask 10110010
          -132 51 -77 131 118 101 58 31 45 vhcurveto
          -21 59 rlineto
          -19 -44 -79 -24 -43 hhcurveto
          -43 -26 23 125 35 2 16 0 hvcurveto
          -178 309 rmoveto
          3 7 13 1 7 hhcurveto
          -12 -73 -13 -110 -10 -71 rrcurveto
          -30 -3 -71 -15 0 vvcurveto
          31 76 59 130 19 62 rrcurveto
          endchar
        </CharString>
        <CharString name="Aacute">
          105 -72 callgsubr
          243 -8 callgsubr
          hintmask 10111100
          228 -84 callgsubr
          -114 -781 -104 callgsubr
        </CharString>
        <CharString name="Acircumflex">
          105 -72 callgsubr
          229 -8 callgsubr
          hintmask 10111100
          185 739 -89 callgsubr
          -61 -774 -104 callgsubr
        </CharString>
        <CharString name="Adieresis">
          105 -72 callgsubr
          67 12 callgsubr
          172 167 -1 182 -121 167 hintmask 10111101
          399 829 rmoveto
          -92 callgsubr
          -227 hmoveto
          -92 callsubr
          -77 -816 -101 callgsubr
          vhcurveto
          hintmask 01111010
          -34 callsubr
          hvcurveto
          -103 callsubr
          -102 callgsubr
        </CharString>
        <CharString name="Agrave">
          105 -72 callgsubr
          215 -8 callgsubr
          hintmask 10111100
          517 788 -82 callgsubr
          -400 -722 -104 callgsubr
        </CharString>
        <CharString name="Aring">
          105 -72 callgsubr
          49 64 75 63 hstemhm
          257 73 8 182 -108 76 hintmask 1011111010000000
          257 -61 callgsubr
          -235 -827 -101 callgsubr
          vhcurveto
          hintmask 0111111100000000
          -34 callsubr
          hvcurveto
          -103 callsubr
          -102 callgsubr
        </CharString>
        <CharString name="Atilde">
          105 -72 callgsubr
          71 114 -85 85 -85 114 1 -8 callgsubr
          hintmask 1011010110000000
          460 761 -66 callgsubr
          hintmask 1011001010000000
          -73 callsubr
          hintmask 1011100110000000
          0 callgsubr
          -365 -748 -106 callgsubr
          hintmask 0111100110000000
          -102 callgsubr
        </CharString>
        <CharString name="B">
          132 -12 86 -59 -21 646 70 hstemhm
          418 195 -180 180 hintmask 10110000
          366 -12 rmoveto
          142 105 92 125 109 -80 49 -83 9 hvcurveto
          88 19 84 57 105 vvcurveto
          121 -113 36 -131 -96 -150 -19 -5 -23 vhcurveto
          -4 -25 rlineto
          0 46 -41 -54 -83 -110 -375 -112 vvcurveto
          hintmask 01110000
          -1 7 8 -1 16 hhcurveto
          47 53 9 13 34 hvcurveto
          hintmask 10110000
          -8 23 71 -20 66 hhcurveto
          -34 350 rmoveto
          54 32 -25 -77 -79 -33 -83 -83 -22 -26 6 7 -12 hvcurveto
          9 63 20 93 21 92 rrcurveto
          2 15 14 1 11 hhcurveto
          20 298 rmoveto
          0 20 4 13 vhcurveto
          hintmask 10101000
          35 13 -27 -38 -55 -28 -96 -69 -12 hvcurveto
          -1 -5 -6 0 -6 hhcurveto
          -9 hlineto
          22 100 19 89 1 36 rrcurveto
          endchar
        </CharString>
        <CharString name="C">
          79 -12 111 376 7 callsubr
          4 callgsubr
          -52 -28 -48 hhcurveto
          -63 -51 48 154 180 69 156 77 20 21 -14 callsubr
          40 32 vvcurveto
          90 -103 51 -109 -215 -141 -199 -226 -194 103 -103 139 161 106 138 0 vhcurveto
          endchar
        </CharString>
        <CharString name="CR">
          1 endchar
        </CharString>
        <CharString name="Ccedilla">
          79 -198 85 588 7 callsubr
          -65 115 4 callgsubr
          -51 -28 -51 hhcurveto
          -61 -51 55 137 196 71 150 72 26 18 -14 callsubr
          38 38 vvcurveto
          79 -91 58 -129 -205 -143 -199 -233 -169 88 -105 121 -14 vhcurveto
          hintmask 11001000
          -36 -27 -42 -47 -41 -67 callsubr
          23 16 34 28 31 hvcurveto
          136 23 83 110 0 vvcurveto
          endchar
        </CharString>
        <CharString name="D">
          182 -12 87 -59 -21 644 71 hstemhm
          151 200 134 194 hintmask 10111000
          339 -12 rmoveto
          212 128 243 212 189 -101 78 -202 -91 -142 5 callsubr
          -43 -57 -87 -110 -351 -128 vvcurveto
          hintmask 01111000
          -5 callgsubr
          hintmask 10111000
          -18 41 47 -8 38 hhcurveto
          51 651 rmoveto
          69 26 -35 -96 -132 -50 -301 -151 -17 -16 4 5 -10 hvcurveto
          25 171 80 272 5 109 6 callgsubr
        </CharString>
        <CharString name="E">
          -55 callsubr
          -63 callgsubr
          hintmask 11001000
          502 173 -71 callsubr
          hintmask 10100100
          -79 callgsubr
          hintmask 11001000
          -87 callgsubr
          hintmask 11010000
          -82 callsubr
        </CharString>
        <CharString name="Eacute">
          -55 callsubr
          223 -41 callsubr
          249 -84 callgsubr
          272 -621 -71 callsubr
          hintmask 10110010
          -79 callgsubr
          hintmask 11010100
          -87 callgsubr
          hintmask 11011000
          -82 callsubr
        </CharString>
        <CharString name="Ecircumflex">
          -55 callsubr
          209 -41 callsubr
          193 739 -89 callgsubr
          338 -614 -71 callsubr
          hintmask 10110010
          -79 callgsubr
          hintmask 11010100
          -87 callgsubr
          hintmask 11011000
          -82 callsubr
        </CharString>
        <CharString name="Edieresis">
          -55 callsubr
          47 146 -63 callgsubr
          -122 9 callsubr
          hintmask 1101000110000000
          186 -62 callsubr
          89 -656 rmoveto
          -41 -42 -67 -33 -58 hhcurveto
          hintmask 1101010010000000
          -64 callsubr
          hintmask 1011001010000000
          -79 callgsubr
          hintmask 1101010010000000
          -87 callgsubr
          hintmask 1101100010000000
          -82 callsubr
        </CharString>
        <CharString name="Egrave">
          -55 callsubr
          195 -41 callsubr
          530 788 -82 callgsubr
          -6 -562 -71 callsubr
          hintmask 10110010
          -79 callgsubr
          hintmask 11010100
          -87 callgsubr
          hintmask 11011000
          -82 callsubr
        </CharString>
        <CharString name="Eth">
          195 -12 87 -59 -21 330 82 232 71 hstemhm
          164 200 134 194 hintmask 10111100
          345 -12 rmoveto
          225 122 243 219 182 -108 78 -189 -100 -139 5 callsubr
          -48 -43 vvcurveto
          -35 -12 -60 -16 -69 vhcurveto
          -85 hlineto
          -3 -15 -2 -39 -28 vvcurveto
          70 hlineto
          -30 -124 -32 -133 -72 vvcurveto
          hintmask 01111100
          -5 callgsubr
          hintmask 10111100
          -18 41 50 -8 28 hhcurveto
          58 651 rmoveto
          69 26 -35 -95 -134 -51 -300 -148 -20 -15 4 5 -10 hvcurveto
          10 69 19 87 20 85 rrcurveto
          112 hlineto
          6 21 4 46 15 vvcurveto
          -103 hlineto
          21 93 18 86 3 50 6 callgsubr
        </CharString>
        <CharString name="Euro">
          121 -12 111 139 72 60 72 33 235 -73 73 hstemhm
          hintmask 11101000
          553 173 rmoveto
          -46 -52 -51 -28 -51 hhcurveto
          -52 -45 40 98 -12 hvcurveto
          20 19 1 20 hhcurveto
          35 71 -3 -2 21 hvcurveto
          0 20 49 3 28 vhcurveto
          -212 hlineto
          20 1 19 2 19 vhcurveto
          1 26 26 1 27 hhcurveto
          36 70 -3 -2 22 hvcurveto
          0 17 49 2 28 vhcurveto
          -214 hlineto
          117 24 52 78 52 hhcurveto
          26 18 -10 0 hvcurveto
          -19 -97 rlineto
          hintmask 11110000
          -10 callsubr
          38 38 vvcurveto
          79 -91 58 -129 -155 -119 -113 -155 -49 vhcurveto
          -83 hlineto
          -2 -15 -2 -26 -12 vvcurveto
          -19 3 -14 0 vhcurveto
          15 2 23 3 27 2 -2 -18 -2 -17 -1 -18 rrcurveto
          -80 hlineto
          -2 -15 -1 -14 -13 vvcurveto
          -19 2 -25 0 vhcurveto
          18 3 30 3 34 3 rrcurveto
          -155 15 97 -90 125 hhcurveto
          166 104 138 0 hvcurveto
          endchar
        </CharString>
        <CharString name="F">
          18 15 -21 319 84 218 84 6 -20 hstemhm
          41 197 hintmask 11101000
          573 701 rmoveto
          -2 -28 -26 0 -25 hhcurveto
          hintmask 11011000
          -87 -82 6 -67 hhcurveto
          -55 -53 -4 -11 -54 hvcurveto
          -2 -23 rlineto
          0 44 -42 -44 vvcurveto
          -23 -202 -74 -226 -159 vvcurveto
          11 hlineto
          42 97 3 23 47 hvcurveto
          14 vlineto
          77 17 101 20 97 vhcurveto
          3 36 13 1 34 hhcurveto
          33 50 -1 -8 25 hvcurveto
          0 20 33 4 51 vhcurveto
          7 -20 -37 2 -36 hhcurveto
          -36 -34 -2 -3 -34 hvcurveto
          20 93 19 83 3 46 rrcurveto
          hintmask 11101000
          1 10 5 0 10 43 71 -12 39 hhcurveto
          46 17 16 47 11 -1 12 -2 12 hvcurveto
          endchar
        </CharString>
        <CharString name="G">
          111 -224 88 190 103 321 232 -73 73 hstemhm
          48 130 -83 83 -83 149 187 197 hintmask 11010011
          229 -224 rmoveto
          177 128 183 378 38 hvcurveto
          -66 10 rlineto
          -105 -32 -67 -85 -72 hhcurveto
          -51 -40 42 133 170 66 135 80 20 15 -8 -5 6 hvcurveto
          -109 vlineto
          hintmask 11101001
          -28 38 59 -9 47 hhcurveto
          22 14 2 0 hvcurveto
          11 24 6 22 23 vvcurveto
          95 -99 66 -124 -216 -141 -199 -200 -175 107 -82 109 26 27 5 8 26 vhcurveto
          -3 -12 -3 -11 -4 -12 rrcurveto
          hintmask 11100101
          -62 -15 -176 -32 -112 vvcurveto
          -67 63 -30 71 vhcurveto
          81 179 rmoveto
          -70 -34 -39 -21 -28 hhcurveto
          -21 -10 12 13 27 40 28 93 14 hvcurveto
          endchar
        </CharString>
        <CharString name="H">
          213 9 -21 30 -21 320 80 313 -20 hstemhm
          41 198 -84 199 53 195 -96 195 hintmask 10111010
          407 88 rmoveto
          -66 48 -34 62 50 74 26 42 50 vhcurveto
          -22 56 rlineto
          -5 -11 -27 -8 -16 hhcurveto
          -9 -4 12 9 hvcurveto
          hintmask 01110101
          119 99 324 101 vvcurveto
          39 -7 7 0 -22 -75 -2 -33 -92 vhcurveto
          1 -11 0 -13 -5 vvcurveto
          -76 -17 -88 -20 -85 vhcurveto
          -160 hlineto
          24 106 21 96 45 vvcurveto
          44 -16 22 0 -157 -67 -59 callgsubr
          -44 -38 vvcurveto
          hintmask 01111010
          -137 -114 -335 -118 vvcurveto
          19 hlineto
          45 95 -3 callsubr
          2 66 22 107 25 109 rrcurveto
          12 47 34 0 28 hhcurveto
          21 18 -4 -3 13 hvcurveto
          -22 -90 -20 -80 -52 vvcurveto
          endchar
        </CharString>
        <CharString name="I">
          -138 9 -21 722 -35 callgsubr
          hintmask 11100000
          245 127 rmoveto
          hintmask 11010000
          -90 callgsubr
          hintmask 11100000
          -97 callgsubr
        </CharString>
        <CharString name="IJ">
          288 -13 109 -87 -21 638 79 4 -14 callgsubr
          46 200 -96 205 hintmask 10010100
          858 709 rmoveto
          hintmask 10100100
          0 -64 -4 -41 vhcurveto
          hintmask 10010100
          -50 -86 4 -77 hhcurveto
          -77 -25 -10 callgsubr
          hintmask 10100100
          25 8 41 -60 callsubr
          -41 26 9 -11 hvcurveto
          -38 -49 rlineto
          -46 39 78 -49 72 hhcurveto
          130 37 115 103 24 hvcurveto
          16 82 25 188 17 144 rrcurveto
          -1 16 15 0 13 hhcurveto
          38 13 8 37 hvcurveto
          hintmask 10010100
          24 -2 22 0 vhcurveto
          -612 -587 rmoveto
          hintmask 10001010
          144 109 260 120 vvcurveto
          34 -16 30 0 vhcurveto
          hintmask 10010010
          -160 -70 -21 0 hvcurveto
          -2 -21 callsubr
          43 11 callsubr
          hintmask 01100100
          -9 -143 -95 -248 -103 vvcurveto
          -66 42 -40 67 52 48 18 46 65 vhcurveto
          -20 50 rlineto
          -3 -11 -17 -5 -13 -53 callsubr
        </CharString>
        <CharString name="Iacute">
          -13 callgsubr
          246 -35 callgsubr
          hintmask 11110000
          119 743 rmoveto
          91 15 137 22 43 19 rrcurveto
          26 10 9 14 22 vvcurveto
          20 -26 54 -11 17 vhcurveto
          -87 -53 -96 -40 -102 -49 rrcurveto
          142 -667 -91 callsubr
        </CharString>
        <CharString name="Icircumflex">
          -13 callgsubr
          229 -35 callgsubr
          hintmask 11110000
          89 737 rmoveto
          49 18 81 31 60 13 42 -12 47 -23 46 -23 35 40 rcurveline
          31 -21 -80 107 -38 hhcurveto
          -38 -144 -86 -50 -66 hvcurveto
          183 -656 -91 callsubr
        </CharString>
        <CharString name="Idieresis">
          -13 callgsubr
          66 148 hstemhm
          47 203 -165 165 -96 198 -57 165 hintmask 11101010
          85 829 rmoveto
          5 callgsubr
          -26 28 -53 -45 -41 -33 -42 vhcurveto
          210 hmoveto
          5 callgsubr
          -25 28 -54 -45 -41 -33 -42 vhcurveto
          -50 -702 rmoveto
          hintmask 11100100
          -90 callgsubr
          hintmask 11110010
          -97 callgsubr
        </CharString>
        <CharString name="Igrave">
          -13 callgsubr
          218 -35 callgsubr
          hintmask 11110000
          381 789 rmoveto
          55 -94 -131 64 -42 hhcurveto
          -31 -23 -56 -47 -13 hvcurveto
          87 -18 110 -20 115 -29 rrcurveto
          -114 -611 -91 callsubr
        </CharString>
        <CharString name="Itilde">
          -130 -8 callsubr
          71 114 -85 114 1 -35 callgsubr
          hintmask 11101100
          361 761 rmoveto
          80 18 76 56 6 hvcurveto
          -54 12 rlineto
          -24 -15 -9 -6 -23 hhcurveto
          hintmask 11010100
          -42 -89 29 -43 hhcurveto
          -88 -23 -79 -58 -6 hvcurveto
          53 -14 rlineto
          29 18 17 8 26 hhcurveto
          hintmask 11101100
          30 102 -29 42 hhcurveto
          -116 -634 rmoveto
          hintmask 11101010
          -90 callgsubr
          hintmask 11101100
          -97 callgsubr
        </CharString>
        <CharString name="J">
          -62 -13 109 530 81 2 -20 hstemhm
          hintmask 10100000
          501 709 rmoveto
          hintmask 11000000
          0 -52 -2 -41 vhcurveto
          hintmask 10100000
          -50 -86 2 -77 hhcurveto
          -77 -22 -10 callgsubr
          hintmask 11000000
          25 8 38 -74 callgsubr
          30 15 8 37 hvcurveto
          hintmask 10100000
          24 -2 22 0 vhcurveto
          endchar
        </CharString>
        <CharString name="Jcircumflex">
          -62 -13 109 530 79 214 -20 hstem
          507 709 rmoveto
          0 -58 -4 -41 vhcurveto
          -50 -86 4 -77 hhcurveto
          -77 -25 -10 callgsubr
          25 8 41 -74 callgsubr
          38 13 8 37 24 -2 22 0 hvcurveto
          -365 28 rmoveto
          49 18 81 31 60 13 42 -12 47 -23 46 -23 35 40 rcurveline
          31 -21 -80 107 -38 hhcurveto
          -38 -144 -86 -50 -66 hvcurveto
          endchar
        </CharString>
        <CharString name="K">
          153 -12 105 617 -20 hstemhm
          41 196 -85 200 hintmask 11100000
          237 20 rmoveto
          54 27 123 28 124 vhcurveto
          21 hlineto
          6 -53 17 -108 22 -74 rrcurveto
          -73 22 48 -25 54 hhcurveto
          72 66 30 36 51 hvcurveto
          -24 55 rlineto
          0 -45 -16 -17 -27 -43 97 165 -48 vhcurveto
          139 70 50 164 3 96 rrcurveto
          17 -2 8 0 -37 -80 -9 -18 -59 vhcurveto
          -195 -26 -40 -87 -99 hhcurveto
          -6 hlineto
          hintmask 11010000
          22 102 20 93 42 vvcurveto
          44 -14 28 0 -152 -71 -21 0 -33 callgsubr
          41 -46 -44 vvcurveto
          hintmask 11100000
          -148 -111 -318 -115 vvcurveto
          67 -10 90 10 39 22 rrcurveto
          endchar
        </CharString>
        <CharString name="L">
          25 2 callsubr
          722 -20 hstemhm
          171 205 hintmask 10110000
          527 167 -59 callsubr
          0 42 -43 -37 vvcurveto
          -140 -48 -201 -32 -75 vhcurveto
          -56 callgsubr
        </CharString>
        <CharString name="Ldotaccent">
          39 2 callsubr
          315 149 258 -20 hstemhm
          171 205 0 155 hintmask 10110100
          376 374 -18 callsubr
          151 -207 -59 callsubr
          hintmask 01111000
          0 42 -43 -37 vvcurveto
          -140 -48 -201 -32 -75 vhcurveto
          -56 -13 -46 -37 -19 vvcurveto
          -15 callgsubr
          hintmask 10110100
          -38 callgsubr
        </CharString>
        <CharString name="Lslash">
          38 2 callsubr
          722 -20 hstemhm
          184 205 hintmask 10110000
          540 167 -45 callgsubr
          22 45 28 64 27 69 70 22 94 30 32 9 rrcurveto
          10 -9 49 -10 21 vhcurveto
          -34 -10 -56 -22 -53 -17 rrcurveto
          28 81 20 77 45 -37 callsubr
          0 42 -43 -37 vvcurveto
          -59 -9 -69 -12 -66 vhcurveto
          -51 -15 -58 -18 -30 -10 2 -29 13 -44 8 -7 28 8 26 14 44 14 -13 -57 -16 -49 -12 -29 rrcurveto
          -56 callgsubr
        </CharString>
        <CharString name="M">
          498 9 -21 26 -21 22 -21 585 131 -1 3 callgsubr
          195 23 196 137 196 -113 113 -113 200 hintmask 0101010101000000
          236 20 rmoveto
          116 74 255 28 149 vhcurveto
          22 32 32 17 24 hhcurveto
          31 8 -17 -34 hvcurveto
          -116 -94 -249 -170 vvcurveto
          27 hlineto
          45 75 0 26 49 hvcurveto
          164 75 227 19 131 vhcurveto
          21 31 30 17 24 hhcurveto
          31 10 -17 -34 hvcurveto
          hintmask 1001010110000000
          -98 -83 -237 -105 vvcurveto
          -66 40 -34 55 49 66 17 49 69 vhcurveto
          -21 57 rlineto
          -6 -15 -20 -6 -16 hhcurveto
          -9 -2 17 9 hvcurveto
          hintmask 0101001100100000
          138 87 201 126 vvcurveto
          79 -56 41 -73 -66 -73 -40 -42 -58 vhcurveto
          54 -12 -40 28 -61 hhcurveto
          -66 -74 -42 -44 -60 hvcurveto
          hintmask 0010101110000000
          -1 49 -16 36 0 vvcurveto
          -157 -59 -20 0 hvcurveto
          -3 -21 callsubr
          41 -46 -38 vvcurveto
          hintmask 0011010110000000
          -77 -112 -406 -108 vvcurveto
          12 hlineto
          45 99 -3 callsubr
          endchar
        </CharString>
        <CharString name="N">
          -24 callgsubr
          -39 callgsubr
          hintmask 10110010
          -68 callsubr
          hintmask 10110100
          -75 callgsubr
          hintmask 01101001
          -79 callsubr
          hintmask 01110100
          -45 callsubr
          endchar
        </CharString>
        <CharString name="Nacute">
          -24 callgsubr
          223 -20 -39 callgsubr
          hintmask 1011100100000000
          -68 callsubr
          hintmask 1011101000000000
          -75 callgsubr
          hintmask 0111010010000000
          -79 callsubr
          hintmask 0111101000000000
          -45 callsubr
          109 720 -75 callsubr
        </CharString>
        <CharString name="Ntilde">
          -24 callgsubr
          51 114 -85 114 1 -20 -39 callgsubr
          hintmask 1011011001000000
          -68 callsubr
          hintmask 1011011010000000
          -75 callgsubr
          hintmask 0111010100100000
          -79 callsubr
          hintmask 0111011010000000
          -45 callsubr
          329 741 -66 callgsubr
          hintmask 1010101010000000
          -73 callsubr
          hintmask 1011011010000000
          0 callgsubr
          endchar
        </CharString>
        <CharString name="O">
          -38 callsubr
          hstem
          -48 callsubr
          vstem
          -105 callsubr
          endchar
        </CharString>
        <CharString name="OE">
          367 -12 81 -81 101 227 83 222 89 -74 74 hstemhm
          48 196 146 192 hintmask 01110110
          602 -12 rmoveto
          114 115 62 27 37 hvcurveto
          -22 60 rlineto
          -31 -80 -49 -17 -43 hhcurveto
          -63 -29 37 87 45 8 51 0 hvcurveto
          0 70 7 43 40 43 -6 -3 19 vhcurveto
          0 17 38 45 vvcurveto
          0 -20 9 -62 -66 -74 -10 0 vhcurveto
          18 121 28 109 0 vvcurveto
          1 7 7 1 20 58 62 -8 24 hhcurveto
          26 17 10 41 17 -3 27 0 hvcurveto
          -3 -104 -104 0 -76 -82 -51 5 -37 hhcurveto
          -234 -128 -215 -217 -184 99 -106 141 60 53 16 28 45 hvcurveto
          -31 41 55 -13 60 hhcurveto
          -212 149 rmoveto
          -26 vlineto
          hintmask 10101110
          0 -31 -42 -47 -41 -27 36 148 230 63 153 94 18 23 -6 -8 15 vhcurveto
          -18 -60 -48 -265 -1 -160 rrcurveto
          endchar
        </CharString>
        <CharString name="Oacute">
          -38 callsubr
          223 -93 callgsubr
          -41 676 -75 callsubr
        </CharString>
        <CharString name="Ocircumflex">
          -38 callsubr
          209 -93 callgsubr
          -80 675 -50 callgsubr
        </CharString>
        <CharString name="Odieresis">
          -38 callsubr
          47 12 callgsubr
          48 196 -23 9 callsubr
          -137 195 hintmask 11110010
          -105 callsubr
          hintmask 11101100
          -107 765 rmoveto
          -92 callsubr
          227 hmoveto
          -92 callgsubr
          endchar
        </CharString>
        <CharString name="Ograve">
          -38 callsubr
          195 -93 callgsubr
          232 724 -32 callgsubr
        </CharString>
        <CharString name="Oslash">
          176 -83 -21 92 76 570 76 92 -62 callgsubr
          89 -36 103 -96 48 vhcurveto
          12 32 13 31 12 31 -8 7 -41 16 -38 3 -12 -31 -12 -32 -13 -32 rrcurveto
          2 -13 -14 1 -15 hhcurveto
          -65 callgsubr
          -121 47 -96 87 -43 hvcurveto
          -12 -30 -11 -30 -10 -30 5 -3 rcurveline
          15 -9 44 -15 19 -1 34 94 rcurveline
          -1 10 11 -1 12 hhcurveto
          269 105 266 188 hvcurveto
          -345 -378 rmoveto
          -12 -11 2 4 -9 hvcurveto
          56 146 63 155 61 150 rrcurveto
          1 -18 1 -17 -16 vvcurveto
          -157 -38 -249 -112 vhcurveto
          -83 117 rmoveto
          -2 23 1 26 27 vvcurveto
          164 49 213 105 9 9 -2 -3 7 vhcurveto
          -58 -146 -62 -154 -58 -148 rrcurveto
          endchar
        </CharString>
        <CharString name="Otilde">
          -38 callsubr
          51 114 -85 114 1 -20 hstemhm
          -48 callsubr
          hintmask 11101110
          -105 callsubr
          196 697 -66 callgsubr
          hintmask 11010110
          -73 callsubr
          hintmask 11101110
          0 callgsubr
          endchar
        </CharString>
        <CharString name="P">
          84 15 -21 269 86 291 70 hstem
          41 195 196 192 vstem
          317 263 rmoveto
          214 93 127 150 99 -64 71 -156 -114 -143 -17 -7 -38 hvcurveto
          -4 -24 rlineto
          0 46 -50 -38 -112 -110 -342 -123 vvcurveto
          -2 15 15 -1 18 hhcurveto
          52 56 8 18 39 hvcurveto
          50 18 94 22 100 vhcurveto
          -1 13 13 0 15 hhcurveto
          35 373 rmoveto
          0 18 4 14 36 12 -30 -43 -110 -38 -108 -79 vhcurveto
          -19 hlineto
          28 124 28 118 45 vvcurveto
          endchar
        </CharString>
        <CharString name="Q">
          171 -224 148 -125 173 -89 41 64 76 570 76 hstemhm
          -48 callsubr
          hintmask 00111110
          663 -45 rmoveto
          -57 19 rlineto
          -47 -33 -14 -3 -20 hhcurveto
          hintmask 01011110
          -104 -100 48 -97 hhcurveto
          -89 -51 -51 -15 -56 55 -51 20 hvcurveto
          hintmask 00111110
          27 28 27 57 42 hvcurveto
          hintmask 10011110
          60 106 -107 79 hhcurveto
          71 55 47 132 22 hvcurveto
          10 487 -106 callsubr
          endchar
        </CharString>
        <CharString name="R">
          152 -12 11 callgsubr
          -99 callsubr
          69 337 rmoveto
          -83 callgsubr
        </CharString>
        <CharString name="Racute">
          152 -12 11 callgsubr
          223 -20 -99 callsubr
          33 441 -98 callgsubr
          55 -158 rmoveto
          -83 callgsubr
        </CharString>
        <CharString name="Rcaron">
          162 -12 11 callgsubr
          0 34 180 -20 hstemhm
          41 196 199 192 hintmask 10111100
          -102 callsubr
          371 625 -47 callsubr
          -331 -240 rmoveto
          hintmask 11011100
          -83 callgsubr
        </CharString>
        <CharString name="Rcommaaccent">
          152 -256 -21 265 11 callgsubr
          -99 callsubr
          17 -576 -43 callsubr
          103 888 rmoveto
          -83 callgsubr
        </CharString>
        <CharString name="S">
          9 -12 78 -78 233 410 79 hstemhm
          105 178 10 180 -52 80 hintmask 10110100
          373 417 rmoveto
          26 20 102 66 88 vvcurveto
          59 -62 60 -107 -117 -110 -66 -102 vhcurveto
          hintmask 10111000
          -135 188 -162 -118 vvcurveto
          -45 -25 -15 -29 -1 vhcurveto
          hintmask 01111000
          -16 71 -30 69 -35 15 -55 -3 -71 -84 -18 -44 rrcurveto
          -37 75 -65 120 136 128 82 113 102 -100 132 0 vhcurveto
          -42 62 rmoveto
          -5 6 -43 59 34 vvcurveto
          30 31 23 47 vhcurveto
          hintmask 10110100
          44 16 -20 -27 -45 -69 -50 -21 -10 hvcurveto
          endchar
        </CharString>
        <CharString name="T">
          30 14 -21 608 99 -86 86 10 -20 hstemhm
          112 197 hintmask 10101000
          309 19 rmoveto
          184 87 287 13 124 vhcurveto
          hintmask 11001000
          -2 56 31 -11 37 hhcurveto
          42 17 16 41 14 -2 14 -2 16 hvcurveto
          -1 -25 -24 -1 -24 hhcurveto
          hintmask 10011000
          0 -280 10 -35 -66 -56 -1 -16 -46 vhcurveto
          7 -64 29 -33 0 vvcurveto
          45 22 51 6 54 1 rrcurveto
          -1 -22 -2 -18 0 vvcurveto
          -23 -182 -80 -262 -148 vvcurveto
          23 hlineto
          45 90 -3 callsubr
          endchar
        </CharString>
        <CharString name="Thorn">
          85 18 -21 164 84 279 74 112 -20 hstem
          157 200 55 195 vstem
          242 17 rmoveto
          40 6 50 10 54 vhcurveto
          32 hlineto
          218 99 130 137 110 -71 60 -154 -9 -10 0 -1 -10 hvcurveto
          2 16 2 14 10 vvcurveto
          57 -18 16 0 -164 -56 -17 -69 callgsubr
          41 -47 -37 -101 -116 -393 -98 vvcurveto
          13 hlineto
          48 99 2 18 41 hvcurveto
          122 507 rmoveto
          31 17 -37 -47 -113 -50 -82 -84 hvcurveto
          -4 hlineto
          20 96 25 100 18 78 rrcurveto
          2 5 10 3 12 hhcurveto
          endchar
        </CharString>
        <CharString name="U">
          -35 callsubr
          hstemhm
          65 197 -111 111 -111 197 152 196 hintmask 11010100
          -54 callgsubr
          hintmask 11001100
          -85 callgsubr
          hintmask 11100100
          -105 callgsubr
          endchar
        </CharString>
        <CharString name="Uacute">
          -35 callsubr
          243 -20 hstemhm
          65 197 -111 111 238 196 hintmask 11101100
          -54 callgsubr
          -85 callgsubr
          hintmask 11110100
          -105 callgsubr
          42 620 -75 callsubr
        </CharString>
        <CharString name="Ucircumflex">
          -35 callsubr
          229 -20 hstemhm
          65 197 -111 111 -111 197 152 196 hintmask 11101010
          -54 callgsubr
          hintmask 11100110
          -85 callgsubr
          hintmask 11110010
          -105 callgsubr
          -37 619 -50 callgsubr
        </CharString>
        <CharString name="Udieresis">
          -35 callsubr
          67 12 callgsubr
          65 197 -111 111 -111 197 -84 167 69 158 -158 196 hintmask 1110101100000000
          -54 callgsubr
          hintmask 1110010100000000
          -85 callgsubr
          hintmask 1111001010000000
          -105 callgsubr
          185 709 rmoveto
          -43 31 -29 45 vhcurveto
          hintmask 1111001100000000
          54 37 -6 callgsubr
          -26 27 -54 -65 callsubr
          hvcurveto
          -227 hmoveto
          -92 callsubr
          endchar
        </CharString>
        <CharString name="Ugrave">
          -35 callsubr
          215 -20 hstemhm
          65 197 -111 111 -111 197 152 196 hintmask 11101010
          -54 callgsubr
          hintmask 11100110
          -85 callgsubr
          hintmask 11110010
          -105 callgsubr
          260 668 -32 callgsubr
        </CharString>
        <CharString name="V">
          104 -12 144 577 -20 hstemhm
          95 194 -159 159 -159 209 178 128 hintmask 11010100
          95 128 rmoveto
          -81 45 -59 80 202 223 395 201 62 -46 63 -90 -19 -62 -53 -126 -18 vhcurveto
          107 -72 rlineto
          -140 -10 -131 -186 -61 hhcurveto
          -19 -7 18 39 hvcurveto
          hintmask 11001100
          76 50 191 168 vvcurveto
          49 -17 34 0 -133 -58 -9 -11 -53 -33 callgsubr
          37 -50 10 -33 vhcurveto
          6 -21 3 -14 -48 vvcurveto
          hintmask 11100100
          -155 -35 -123 -95 vvcurveto
          endchar
        </CharString>
        <CharString name="W">
          421 -12 144 577 -14 callgsubr
          112 190 -174 174 -174 198 103 185 -156 156 -156 207 172 125 hintmask 1101000101000000
          112 138 rmoveto
          -93 49 -57 75 67 69 46 59 56 vhcurveto
          -74 15 48 -31 50 hhcurveto
          209 212 379 220 52 -41 70 -105 hvcurveto
          0 -76 -41 -16 -134 vhcurveto
          113 -76 rlineto
          -146 -9 -128 -180 -58 hhcurveto
          -17 -11 16 40 hvcurveto
          hintmask 1011000011000000
          77 51 191 161 vvcurveto
          57 -17 36 0 vhcurveto
          -122 -1 -87 -40 0 vvcurveto
          12 -39 7 -33 -86 vvcurveto
          hintmask 1101001001000000
          -111 -26 -155 -3 -53 vhcurveto
          -28 -22 -46 -33 -25 hhcurveto
          -22 -12 16 62 hvcurveto
          hintmask 1100011001000000
          135 24 87 165 vvcurveto
          84 -25 29 0 -99 -99 -12 -11 -42 vhcurveto
          -4 -20 rlineto
          hintmask 1101001001000000
          0 49 -58 6 -14 vhcurveto
          hintmask 1100101001000000
          12 -29 4 -53 -72 vvcurveto
          hintmask 1101001001000000
          -103 -16 -91 -108 vvcurveto
          endchar
        </CharString>
        <CharString name="X">
          128 -12 111 610 -20 hstem
          76 654 rmoveto
          19 -15 31 -28 15 -27 36 -65 31 -86 32 -98 -71 -77 -131 -145 -46 -80 rrcurveto
          -20 26 39 -25 25 hhcurveto
          13 12 7 11 9 hvcurveto
          48 84 61 92 46 60 14 -45 14 -45 16 -47 rrcurveto
          -93 31 40 -24 67 hhcurveto
          87 94 71 0 hvcurveto
          -23 54 rlineto
          0 -35 -14 -23 -14 -15 11 73 -30 vhcurveto
          -23 55 -25 73 -24 71 89 97 86 100 66 85 rrcurveto
          18 -21 -34 27 -31 hhcurveto
          -15 -16 -9 -19 -12 hvcurveto
          -60 -94 -48 -66 -35 -45 -52 164 rcurveline
          -17 49 -34 18 0 vvcurveto
          -98 -4 -92 -22 -19 -5 rrcurveto
          endchar
        </CharString>
        <CharString name="Y">
          4 callsubr
          536 -14 callgsubr
          65 194 -137 74 -58 121 -121 197 153 197 hintmask 1110001010000000
          237 -224 -67 callgsubr
          hintmask 1101000110000000
          -33 callsubr
          hintmask 1110100010000000
          -32 callsubr
          hintmask 1110010010000000
          -56 callsubr
        </CharString>
        <CharString name="Yacute">
          4 callsubr
          537 -20 243 -20 hstemhm
          65 194 -137 74 -58 121 229 197 hintmask 11110011
          348 -84 callgsubr
          -92 -1018 -67 callgsubr
          -33 callsubr
          hintmask 11111001
          -32 callsubr
          hintmask 11110101
          -56 callsubr
        </CharString>
        <CharString name="Z">
          81 -25 180 -146 -21 70 146 333 150 -150 174 hstemhm
          hintmask 10010000
          536 201 rmoveto
          -31 -21 -19 -15 -26 hhcurveto
          hintmask 01110000
          -50 -102 43 6 -77 hvcurveto
          119 167 120 90 116 186 -23 51 rcurveline
          -7 -33 -33 -4 -32 hhcurveto
          hintmask 01101000
          -83 -93 24 -90 hhcurveto
          -49 -44 -7 -20 -45 hvcurveto
          -4 -14 -1 -9 -14 vvcurveto
          -61 26 -70 6 -12 vhcurveto
          0 48 33 62 66 55 -3 -4 51 vhcurveto
          -136 -215 -151 -97 -91 -177 rrcurveto
          -24 18 35 -29 21 hhcurveto
          25 21 49 21 25 hvcurveto
          hintmask 10010000
          96 101 -83 96 hhcurveto
          105 26 114 92 16 hvcurveto
          endchar
        </CharString>
        <CharString name="a">
          -27 callgsubr
          -22 callsubr
          467 120 -107 callgsubr
        </CharString>
        <CharString name="aacute">
          -27 callgsubr
          264 -20 -22 callsubr
          219 -93 callsubr
          265 -431 -107 callgsubr
        </CharString>
        <CharString name="acircumflex">
          -27 callgsubr
          261 -20 -22 callsubr
          174 -85 callsubr
          325 -428 -107 callgsubr
        </CharString>
        <CharString name="acute">
          117 522 -21 206 -20 hstem
          162 -93 callsubr
          endchar
        </CharString>
        <CharString name="acute.cap">
          55 761 -21 193 -20 hstem
          140 -84 callgsubr
          endchar
        </CharString>
        <CharString name="adieresis">
          -27 callgsubr
          87 12 callgsubr
          29 188 -72 167 -25 180 -111 167 hintmask 11101010
          145 602 -88 callsubr
          hintmask 11110100
          111 -482 -107 callgsubr
        </CharString>
        <CharString name="ae">
          172 -12 95 279 81 -64 64 hstemhm
          29 185 69 183 69 152 hintmask 11011100
          223 443 rmoveto
          -104 -90 -103 -186 -125 70 -41 53 64 57 34 29 39 hvcurveto
          -43 29 47 -20 58 hhcurveto
          129 89 85 0 hvcurveto
          -29 49 rlineto
          0 -46 -39 -52 -44 -27 35 59 vhcurveto
          0 221 23 134 vvcurveto
          68 -54 41 -96 -32 -34 -6 -12 -31 vhcurveto
          -45 13 -54 2 0 vvcurveto
          -5 -9 -4 -8 -4 -10 rrcurveto
          12 -21 -36 18 -48 hhcurveto
          60 -270 rmoveto
          -25 2 -18 5 -20 vhcurveto
          -7 -12 -19 -9 -13 hhcurveto
          -14 -18 8 67 92 24 101 36 11 12 -4 -5 12 hvcurveto
          -16 -57 -10 -74 -49 vvcurveto
          183 63 rmoveto
          hintmask 10111100
          29 9 114 39 15 6 -18 -17 -56 -33 -42 -36 -10 vhcurveto
          endchar
        </CharString>
        <CharString name="agrave">
          -27 callgsubr
          253 -20 -22 callsubr
          490 -78 callsubr
          3 -379 -107 callgsubr
        </CharString>
        <CharString name="ampersand">
          287 -14 102 -79 -21 644 75 hstemhm
          57 180 -33 166 102 130 hintmask 10101100
          610 385 rmoveto
          -22 -38 -36 -61 -15 -24 -25 38 -36 54 -31 57 rrcurveto
          53 35 104 67 79 vvcurveto
          55 -50 60 -121 -124 -103 -63 -100 -67 46 -80 0 vhcurveto
          hintmask 10110100
          -101 -54 -92 -74 -110 vvcurveto
          -106 86 -67 129 87 65 28 34 47 vhcurveto
          hintmask 01110100
          -34 32 46 -26 55 hhcurveto
          63 64 32 48 52 hvcurveto
          -33 49 rlineto
          0 -34 -19 -18 -21 -28 27 57 -51 vhcurveto
          44 50 57 86 12 21 -15 26 -65 21 -21 -1 rrcurveto
          -373 -188 rmoveto
          54 29 40 25 23 vhcurveto
          34 -70 64 -92 20 -31 rrcurveto
          hintmask 10110100
          0 -43 -33 -46 -41 -42 39 70 vhcurveto
          hintmask 10101100
          133 375 rmoveto
          42 31 18 27 29 15 -20 -29 -49 -45 -33 -27 -18 vhcurveto
          -18 29 -12 31 29 vvcurveto
          endchar
        </CharString>
        <CharString name="aring">
          -27 callgsubr
          73 68 86 67 hstemhm
          29 188 0 75 -5 170 -79 79 hintmask 11111001
          217 -26 callsubr
          hintmask 11110101
          -19 callgsubr
          175 -507 -95 callsubr
          hintmask 11111010
          -103 callgsubr
          hvcurveto
          hintmask 11110101
          -70 callgsubr
          vhcurveto
          hintmask 11111010
          -80 callgsubr
        </CharString>
        <CharString name="asciicircum">
          -28 305 -21 390 -20 hstem
          237 523 rmoveto
          85 -235 rlineto
          -2 20 15 -2 26 hhcurveto
          46 24 7 0 hvcurveto
          -72 155 -30 77 -66 151 rrcurveto
          -95 hlineto
          -68 -151 -35 -80 -69 -155 rrcurveto
          0 27 -4 30 30 24 2 2 20 vhcurveto
          endchar
        </CharString>
        <CharString name="asciitilde">
          41 224 125 -117 -21 40 98 -98 125 6 -20 hstemhm
          hintmask 10001000
          384 224 rmoveto
          96 26 82 64 7 hvcurveto
          -48 12 rlineto
          -27 -19 -16 -6 -27 hhcurveto
          hintmask 01010000
          -61 -109 27 -52 hhcurveto
          hintmask 10001000
          -103 -27 -85 -67 -7 hvcurveto
          hintmask 01101000
          51 -13 rlineto
          33 22 19 7 30 hhcurveto
          hintmask 10001000
          49 121 -27 48 hhcurveto
          endchar
        </CharString>
        <CharString name="asterisk">
          -79 341 -21 185 144 87 -20 hstemhm
          117 104 -53 124 hintmask 11101000
          326 363 rmoveto
          -2 6 8 -1 7 hhcurveto
          23 31 13 19 17 hvcurveto
          1 4 0 5 5 vvcurveto
          26 -15 36 -19 10 vhcurveto
          0 -25 -9 -23 -8 -5 0 2 -5 vhcurveto
          -10 4 -15 17 -9 13 55 4 68 21 16 15 rrcurveto
          10 10 7 21 21 vvcurveto
          14 -4 13 -5 12 vhcurveto
          5 -5 -22 8 -25 hhcurveto
          -12 -13 -3 -4 -15 hvcurveto
          0 -4 -42 -16 -20 vhcurveto
          -6 -9 -23 -14 -19 -10 rrcurveto
          14 40 6 53 31 vvcurveto
          10 -1 6 -1 5 vhcurveto
          25 -9 -40 19 -33 hhcurveto
          -22 -8 -18 -38 -35 vvcurveto
          0 39 -22 10 -22 vhcurveto
          5 -8 6 -32 1 -22 rrcurveto
          34 -41 -63 31 -25 hhcurveto
          -26 -34 -36 -30 -5 hvcurveto
          3 -33 45 -25 21 -3 rrcurveto
          0 29 31 24 5 vhcurveto
          2 6 5 0 5 hhcurveto
          14 13 -4 -4 13 hvcurveto
          hintmask 11110000
          -41 -31 -55 -57 -37 vvcurveto
          -26 22 -32 24 -14 vhcurveto
          28 37 26 22 15 hvcurveto
          0 -22 38 25 vvcurveto
          10 14 30 14 20 vhcurveto
          19 -55 37 -62 21 -11 rrcurveto
          endchar
        </CharString>
        <CharString name="at">
          333 -23 73 98 78 263 66 92 68 hstem
          45 138 77 141 73 131 98 117 vstem
          518 76 rmoveto
          -16 -33 -41 -10 -43 hhcurveto
          -148 -70 128 143 161 107 165 193 163 57 -108 -110 -141 -69 -62 -20 -5 -4 14 11 45 3 115 25 107 hvcurveto
          9 -24 -83 28 -57 hhcurveto
          -126 -83 -96 -148 -125 72 -38 60 47 37 27 18 26 hvcurveto
          -23 13 26 -22 34 hhcurveto
          66 179 84 202 160 -129 121 -211 -267 -168 -194 -217 -167 111 -160 236 54 43 9 22 59 hvcurveto
          0 -7 37 -23 31 vhcurveto
          -90 156 rmoveto
          -19 -8 31 55 98 24 73 48 9 12 -4 -4 6 hvcurveto
          -17 -70 -4 -79 -5 -71 rrcurveto
          -13 -8 -23 -16 -15 hhcurveto
          endchar
        </CharString>
        <CharString name="atilde">
          27 -12 102 271 82 85 118 -86 86 -86 118 5 -20 hstemhm
          29 188 70 180 hintmask 11010111
          441 528 -66 callsubr
          hintmask 11001011
          -52 -83 32 -45 hhcurveto
          -89 -21 -84 -67 -6 hvcurveto
          52 -12 rlineto
          37 19 18 8 26 hhcurveto
          hintmask 11100111
          -1 callgsubr
          26 -408 -107 callgsubr
        </CharString>
        <CharString name="b">
          21 -12 86 -61 -21 451 -20 311 -20 hstemhm
          142 185 -7 188 hintmask 01111000
          327 692 rmoveto
          32 -6 10 0 -25 -66 -2 -25 -90 vhcurveto
          1 -10 1 -17 -15 -168 -117 -320 -151 vvcurveto
          -31 5 -3 0 67 77 18 6 25 vhcurveto
          hintmask 10110100
          -12 22 38 -16 43 hhcurveto
          114 92 113 163 142 -69 37 -56 -40 -37 -18 -17 -28 hvcurveto
          hintmask 10111000
          26 112 23 108 64 vvcurveto
          -31 -349 rmoveto
          hintmask 10110100
          17 7 -16 -38 -76 -27 -139 -50 -10 -13 4 5 -10 hvcurveto
          7 63 21 91 22 95 rrcurveto
          6 12 14 5 10 hhcurveto
          endchar
        </CharString>
        <CharString name="backslash">
          -121 -91 -21 859 -20 hstem
          9 710 rmoveto
          113 -278 106 -275 101 -269 rrcurveto
          35 26 11 23 23 hvcurveto
          -102 270 -110 282 -109 273 -38 -9 -28 -17 -17 -11 rrcurveto
          endchar
        </CharString>
        <CharString name="bar">
          -231 -128 -21 945 8 callsubr
          796 rmoveto
          -40 -17 -2 -3 -38 hvcurveto
          -940 vlineto
          18 33 0 6 44 hvcurveto
          endchar
        </CharString>
        <CharString name="braceleft">
          -31 -203 -21 959 -20 hstemhm
          130 170 -170 206 hintmask 11100000
          487 708 rmoveto
          18 -43 -41 9 -40 hhcurveto
          -90 -54 -52 -87 hvcurveto
          -91 3 -55 -60 vvcurveto
          -34 -1 -28 -3 -28 vhcurveto
          0 -5 -1 -6 -33 -86 14 0 vhcurveto
          -9 -38 -1 -47 0 vvcurveto
          0 118 -8 11 -14 vhcurveto
          -19 -106 -58 -146 -66 vvcurveto
          -65 45 -47 132 18 26 1 4 23 vhcurveto
          6 50 rlineto
          0 -66 7 -11 31 vhcurveto
          -2 5 -1 7 10 vvcurveto
          hintmask 11010000
          53 36 166 69 vvcurveto
          31 -18 30 -32 11 vhcurveto
          36 13 27 18 6 43 12 85 7 204 25 29 rrcurveto
          14 16 66 -1 0 vvcurveto
          endchar
        </CharString>
        <CharString name="braceright">
          -28 -203 -21 959 -20 hstemhm
          179 206 -170 170 hintmask 11010000
          28 -197 rmoveto
          -18 43 41 -9 40 hhcurveto
          90 54 52 87 hvcurveto
          91 -3 55 60 vvcurveto
          34 1 28 3 28 vhcurveto
          0 5 1 6 33 86 -14 0 vhcurveto
          9 38 1 47 0 vvcurveto
          0 -118 8 -11 14 vhcurveto
          19 106 58 146 66 vvcurveto
          65 -45 47 -132 -18 -26 -1 -4 -23 vhcurveto
          -6 -50 rlineto
          0 66 -7 11 -31 vhcurveto
          2 -5 1 -7 -10 vvcurveto
          hintmask 11100000
          -53 -36 -166 -69 vvcurveto
          -31 18 -30 32 -11 vhcurveto
          -36 -13 -27 -18 -6 -43 -12 -85 -6 -205 -26 -28 rrcurveto
          -14 -15 -66 0 0 vvcurveto
          endchar
        </CharString>
        <CharString name="bracketleft">
          -105 -12 callgsubr
          312 633 rmoveto
          3 14 53 6 45 1 4 59 rcurveline
          11 -66 -66 10 -79 hhcurveto
          -21 -20 -24 -20 -3 hvcurveto
          -37 -258 -36 -347 -26 -254 rrcurveto
          2 -18 17 -23 0 vvcurveto
          -6 34 71 -8 88 hhcurveto
          12 14 1 0 hvcurveto
          8 53 rlineto
          0 -87 26 11 vvcurveto
          108 21 140 16 147 vhcurveto
          14 129 33 216 6 26 rrcurveto
          endchar
        </CharString>
        <CharString name="bracketright">
          -73 -12 callgsubr
          120 -123 rmoveto
          -3 -14 -53 -6 -45 -1 -4 -59 rcurveline
          -11 66 66 -10 79 hhcurveto
          21 20 24 20 3 hvcurveto
          37 258 36 347 26 254 rrcurveto
          -2 18 -17 23 0 vvcurveto
          6 -34 -71 8 -88 hhcurveto
          -12 -14 -1 0 hvcurveto
          -8 -53 rlineto
          0 87 -26 -11 vvcurveto
          -108 -21 -140 -16 -147 vhcurveto
          -14 -129 -33 -216 -6 -26 rrcurveto
          endchar
        </CharString>
        <CharString name="brokenbar">
          -221 -128 -21 441 107 398 8 callsubr
          -143 rmoveto
          435 -95 -441 vlineto
          51 8 1 5 36 hvcurveto
          940 vmoveto
          -29 -48 -2 -4 -18 hvcurveto
          -392 95 vlineto
          endchar
        </CharString>
        <CharString name="bullet">
          -47 204 -21 282 -20 hstem
          97 319 rmoveto
          -77 54 -59 79 86 63 68 82 74 -50 58 -86 -82 -64 -60 -86 vhcurveto
          endchar
        </CharString>
        <CharString name="c">
          -75 -12 99 289 67 hstem
          20 187 vstem
          -42 callsubr
          -134 78 -57 97 77 83 36 62 57 vhcurveto
          -32 44 rlineto
          -29 callgsubr
        </CharString>
        <CharString name="caron">
          127 527 -21 201 -20 hstem
          492 707 rmoveto
          -53 -28 -72 -29 -65 -21 -46 19 -38 24 -48 33 -49 -47 rcurveline
          -33 19 88 -119 38 hhcurveto
          42 151 85 60 70 hvcurveto
          endchar
        </CharString>
        <CharString name="caron.cap">
          145 765 -21 180 -20 hstem
          518 924 -47 callsubr
          endchar
        </CharString>
        <CharString name="ccedilla">
          -84 -198 85 489 67 hstemhm
          20 163 -163 187 -139 115 hintmask 11100000
          -42 callsubr
          -113 55 -58 75 -15 vhcurveto
          hintmask 11001000
          -36 -27 -46 -49 -42 -67 callsubr
          22 15 33 26 30 hvcurveto
          68 8 70 34 50 54 -32 44 rcurveline
          -31 -41 -36 -12 -25 hhcurveto
          hintmask 11010000
          -43 callgsubr
        </CharString>
        <CharString name="cedilla">
          13 -198 85 122 -20 hstem
          130 115 vstem
          240 9 rmoveto
          -35 -15 -75 -65 -54 -67 callsubr
          25 20 40 35 33 hvcurveto
          endchar
        </CharString>
        <CharString name="cent">
          -84 -95 -21 678 -20 hstem
          20 187 vstem
          -49 callsubr
          60 -52 44 -90 6 vhcurveto
          21 106 rlineto
          10 -32 -30 4 -19 hhcurveto
          -1 -21 -4 -66 -4 -36 rrcurveto
          -128 -21 -81 -102 -137 vvcurveto
          -110 52 -58 73 -17 vhcurveto
          -18 -96 7 callgsubr
          20 0 50 4 35 71 6 73 34 52 57 -32 44 rcurveline
          -29 callgsubr
        </CharString>
        <CharString name="circumflex">
          84 522 -21 203 -20 hstem
          121 -85 callsubr
          endchar
        </CharString>
        <CharString name="circumflex.cap">
          145 760 -21 180 -20 hstem
          150 739 -50 callgsubr
        </CharString>
        <CharString name="colon">
          -158 -12 179 97 179 hstemhm
          62 191 -155 191 hintmask 11010000
          98 349 rmoveto
          -49 29 -36 59 56 47 46 51 47 -28 35 -60 -55 -48 -41 -53 vhcurveto
          hintmask 11100000
          -36 -276 rmoveto
          -49 29 -36 59 56 47 46 51 47 -28 35 -60 -55 -48 -41 -53 vhcurveto
          endchar
        </CharString>
        <CharString name="comma">
          -244 -169 -21 351 -20 hstem
          32 202 vstem
          234 -54 callsubr
          endchar
        </CharString>
        <CharString name="commaaccent">
          -91 -256 -21 257 -20 hstem
          210 -277 -43 callsubr
          endchar
        </CharString>
        <CharString name="copyright">
          295 -15 70 73 90 287 66 66 70 hstem
          32 87 73 170 92 153 90 85 vstem
          538 258 rmoveto
          -34 -34 -42 -6 -20 hhcurveto
          -52 -28 42 86 94 33 65 41 10 9 -4 -2 1 hvcurveto
          -4 -90 27 -19 66 -6 44 6 rlinecurve
          7 3 11 34 28 vvcurveto
          73 -73 43 -89 -146 -107 -115 -133 -127 99 -68 105 117 63 83 0 vhcurveto
          -544 132 -78 callgsubr
        </CharString>
        <CharString name="currency">
          197 72 -21 60 120 237 119 56 -20 hstem
          123 130 216 131 vstem
          123 349 rmoveto
          -47 9 -43 20 -37 vhcurveto
          -40 -36 -33 -33 -24 -30 50 -56 20 -14 25 -2 rrcurveto
          14 14 5 22 17 hvcurveto
          13 16 14 21 16 22 rrcurveto
          -17 34 40 -9 49 hhcurveto
          53 44 11 20 35 hvcurveto
          18 -23 16 -23 14 -18 rrcurveto
          -22 17 14 -5 14 hhcurveto
          25 2 20 14 50 56 -26 32 -36 36 -44 39 rrcurveto
          17 35 8 40 44 vvcurveto
          42 -8 39 -16 34 vhcurveto
          43 38 35 35 25 32 -50 56 -21 16 -25 2 rrcurveto
          -14 -14 -5 -22 -17 hvcurveto
          -13 -17 -15 -22 -17 -22 rrcurveto
          20 -35 -44 12 -53 hhcurveto
          -53 -44 -11 -20 -35 hvcurveto
          -44 60 rlineto
          22 -17 -14 5 -14 hhcurveto
          -25 -2 -21 -17 -50 -56 25 -32 34 -35 43 -37 rrcurveto
          -16 -34 -7 -39 -42 vvcurveto
          130 hmoveto
          66 28 53 80 79 29 -53 -66 -66 -29 -52 -79 -80 -28 52 66 vhcurveto
          endchar
        </CharString>
        <CharString name="d">
          43 -12 102 273 80 291 -20 hstemhm
          29 188 69 184 -93 184 hintmask 11111000
          544 53 rmoveto
          -18 51 rlineto
          0 -33 -14 -10 -10 -3 12 26 vhcurveto
          hintmask 11110100
          140 91 291 128 vvcurveto
          23 -3 16 -5 8 vhcurveto
          -23 -67 -1 -25 -89 hvcurveto
          2 -15 1 -13 -16 vvcurveto
          -69 -18 -87 -19 -87 vhcurveto
          8 -17 -34 14 -43 hhcurveto
          -131 -86 -128 -155 -131 62 -41 69 47 44 19 29 46 hvcurveto
          -35 13 29 -13 38 hhcurveto
          58 63 31 34 46 hvcurveto
          -298 36 rmoveto
          -21 -8 19 48 77 20 130 59 9 10 -3 -3 10 hvcurveto
          hintmask 11111000
          -20 -99 -16 -93 -3 -63 rrcurveto
          -1 vlineto
          -8 -15 -15 -4 -10 hhcurveto
          endchar
        </CharString>
        <CharString name="degree">
          -244 478 66 107 66 hstem
          37 100 86 102 vstem
          325 612 rmoveto
          63 -59 42 -74 -104 -51 -59 -73 -72 67 -35 68 114 39 74 60 vhcurveto
          -152 -68 rmoveto
          -27 -9 28 13 29 13 37 38 25 10 -26 -15 -22 -10 -44 -40 hvcurveto
          endchar
        </CharString>
        <CharString name="dieresis">
          49 530 146 hstem
          87 167 44 167 vstem
          87 602 -88 callsubr
          endchar
        </CharString>
        <CharString name="dieresis.cap">
          113 757 146 hstem
          121 9 callsubr
          vstem
          121 -62 callsubr
          endchar
        </CharString>
        <CharString name="divide">
          47 27 134 71 92 67 134 hstemhm
          190 143 -126 143 hintmask 11110000
          481 232 rmoveto
          4 13 2 56 23 vvcurveto
          -411 hlineto
          -8 -28 -1 -36 -28 vvcurveto
          123 -142 -17 callgsubr
          hintmask 11101000
          17 364 -17 callgsubr
          endchar
        </CharString>
        <CharString name="dollar">
          6 -100 -21 754 77 97 -20 hstemhm
          92 177 25 178 -63 77 hintmask 11110100
          364 417 rmoveto
          25 20 97 77 75 vvcurveto
          42 -33 44 -59 22 vhcurveto
          19 96 rlineto
          10 -32 -31 4 -19 hhcurveto
          -1 -22 -3 -41 -4 -34 rrcurveto
          -10 hlineto
          -110 -111 -63 -101 hvcurveto
          hintmask 11111000
          -137 202 -161 -124 vvcurveto
          -42 -23 -15 -28 -1 vhcurveto
          -19 71 -32 69 -36 15 -55 -3 -68 -84 -16 -44 rrcurveto
          -33 62 -55 98 -11 vhcurveto
          -18 -98 7 callgsubr
          22 3 55 5 35 rrcurveto
          119 12 101 75 100 vvcurveto
          103 -108 136 0 vhcurveto
          -44 62 rmoveto
          -4 6 -47 60 36 vvcurveto
          29 29 23 47 vhcurveto
          hintmask 11110100
          44 20 -20 -29 -46 -68 -49 -21 -10 hvcurveto
          endchar
        </CharString>
        <CharString name="dotaccentcmb">
          -111 728 1 callsubr
          801 -25 callgsubr
        </CharString>
        <CharString name="dotaccentcmb.cap">
          -111 753 1 callsubr
          826 -25 callgsubr
        </CharString>
        <CharString name="dotlessi">
          9 -21 450 -20 -23 callsubr
          hintmask 11100000
          219 115 -98 callsubr
          endchar
        </CharString>
        <CharString name="dotlessj">
          -201 -224 94 568 -20 hstem
          89 187 vstem
          -77 callgsubr
          endchar
        </CharString>
        <CharString name="e">
          -63 -7 callgsubr
          hstem
          20 185 87 160 vstem
          20 181 rmoveto
          -126 65 -67 113 137 88 99 0 vhcurveto
          -32 43 rlineto
          0 -63 -42 -53 -35 -23 18 48 -8 vhcurveto
          0 243 20 146 vvcurveto
          74 -67 49 -103 -140 -122 -90 -172 vhcurveto
          185 39 rmoveto
          103 4 37 47 29 hhcurveto
          8 9 -4 -20 -46 -48 -74 -39 -6 hvcurveto
          endchar
        </CharString>
        <CharString name="eacute">
          -62 -7 callgsubr
          264 -95 callgsubr
          -49 281 -97 callsubr
          endchar
        </CharString>
        <CharString name="ecircumflex">
          -62 -7 callgsubr
          261 -95 callgsubr
          -87 281 -89 callsubr
          endchar
        </CharString>
        <CharString name="edieresis">
          -62 -7 callgsubr
          87 12 callgsubr
          20 185 -105 167 25 160 -141 167 hintmask 11110100
          -100 callsubr
          hintmask 11101010
          -105 382 -88 callsubr
          endchar
        </CharString>
        <CharString name="egrave">
          -63 -7 callgsubr
          253 -95 callgsubr
          237 327 -81 callgsubr
          endchar
        </CharString>
        <CharString name="eight">
          14 -12 76 570 75 hstemhm
          37 120 -38 181 21 179 -84 100 hintmask 11101000
          231 -12 rmoveto
          134 135 78 130 57 -36 59 -59 80 hvcurveto
          hintmask 11010100
          64 58 47 69 56 vvcurveto
          97 -88 37 -85 -114 -110 -67 -100 -55 31 -58 49 -67 vhcurveto
          hintmask 11101000
          -92 -67 -70 -74 -80 vvcurveto
          -90 84 -63 110 vhcurveto
          -74 158 rmoveto
          67 56 50 33 26 vhcurveto
          39 -57 36 -57 -43 vvcurveto
          -44 -44 -24 -39 -41 -40 26 56 vhcurveto
          hintmask 11010100
          143 436 rmoveto
          39 35 13 26 25 30 -15 -38 -43 -27 -48 -35 -30 vhcurveto
          -31 44 -23 38 40 vvcurveto
          endchar
        </CharString>
        <CharString name="emdash">
          485 239 92 hstem
          941 239 rmoveto
          3 42 0 14 36 vvcurveto
          -880 hlineto
          -1 -18 -2 -49 -25 vvcurveto
          endchar
        </CharString>
        <CharString name="endash">
          84 239 92 hstem
          540 239 rmoveto
          2 42 1 14 36 vvcurveto
          -489 hlineto
          -2 -23 -1 -36 -33 vvcurveto
          endchar
        </CharString>
        <CharString name="equal">
          13 152 92 61 92 hstem
          442 152 rmoveto
          4 20 2 38 34 vvcurveto
          -357 hlineto
          -9 -39 0 -40 -13 vvcurveto
          361 153 rmoveto
          2 15 3 42 35 vvcurveto
          -357 hlineto
          -8 -37 -1 -41 -14 vvcurveto
          endchar
        </CharString>
        <CharString name="eth">
          -9 -12 77 302 76 291 -20 hstem
          19 178 109 191 vstem
          496 604 rmoveto
          9 -8 49 -8 10 vhcurveto
          -128 -38 -48 44 -58 36 -68 20 rlinecurve
          -27 -40 35 -29 28 -31 22 -35 rlinecurve
          -107 -31 rlineto
          -21 12 -36 10 -11 vhcurveto
          117 35 13 -31 8 -32 6 -33 rlinecurve
          3 -14 -14 1 -14 hhcurveto
          -145 -89 -132 -122 -104 66 -97 143 185 84 168 145 95 -33 99 -60 81 hvcurveto
          -98 -278 rmoveto
          -113 -21 -120 -48 -26 -14 50 51 93 33 108 68 vhcurveto
          6 hlineto
          1 -23 1 -23 -23 vvcurveto
          endchar
        </CharString>
        <CharString name="exclam">
          -165 -16 177 559 -20 hstemhm
          35 196 -97 197 hintmask 11100000
          35 64 rmoveto
          -46 30 -34 59 58 49 44 48 48 -29 37 -63 -56 -48 -43 -54 vhcurveto
          73 152 rmoveto
          -3 15 7 -1 15 hhcurveto
          33 20 5 6 17 hvcurveto
          hintmask 11010000
          21 36 95 298 110 vvcurveto
          37 -13 16 0 -27 -82 -9 -25 -81 vhcurveto
          0 6 -51 -36 vvcurveto
          -107 -10 -125 -16 -151 vhcurveto
          endchar
        </CharString>
        <CharString name="exclamdown">
          -188 -263 -21 559 177 hstemhm
          13 197 -97 196 hintmask 11010000
          309 372 rmoveto
          46 -30 34 -59 -58 -49 -44 -48 -48 29 -37 63 56 48 43 54 vhcurveto
          -73 -152 rmoveto
          3 -15 -7 1 -15 hhcurveto
          -33 -20 -5 -6 -17 hvcurveto
          hintmask 11100000
          -21 -36 -95 -298 -110 vvcurveto
          -37 13 -16 0 27 82 9 25 81 vhcurveto
          0 -6 51 36 vvcurveto
          107 10 125 16 151 vhcurveto
          endchar
        </CharString>
        <CharString name="f">
          -173 -134 -21 516 70 227 75 hstem
          25 245 84 59 vstem
          29 350 rmoveto
          66 7 -20 -212 -14 -92 -52 -176 rlinecurve
          19 -11 69 -20 73 -1 38 50 50 233 12 233 39 -2 29 -4 20 -1 rrcurveto
          0 16 27 50 vvcurveto
          -101 hlineto
          75 57 65 87 59 vvcurveto
          61 -45 38 -71 -161 -22 -172 -130 -12 vhcurveto
          -72 hlineto
          -3 -14 -2 -19 -12 vvcurveto
          -17 4 -19 0 vhcurveto
          300 308 rmoveto
          17 8 -11 -16 -33 -30 -49 -48 -38 hvcurveto
          80 6 13 67 34 hhcurveto
          endchar
        </CharString>
        <CharString name="five">
          16 -15 66 -66 224 187 67 99 147 hstemhm
          307 194 hintmask 10111000
          214 555 rmoveto
          3 62 40 4 84 hhcurveto
          46 61 -31 0 hvcurveto
          0 34 71 47 vvcurveto
          16 0 10 -6 13 vhcurveto
          16 -35 -38 5 -38 -70 -72 -10 -64 hhcurveto
          -45 -31 3 0 hvcurveto
          -24 -84 -18 -116 -21 -72 24 -32 rcurveline
          29 -2 rlineto
          108 67 -51 -99 -110 -39 -85 -62 -11 -9 4 7 -10 hvcurveto
          16 99 rlineto
          hintmask 01111000
          27 -27 -49 21 -58 hhcurveto
          -8 -6 0 -3 -20 hvcurveto
          -14 -23 -5 -34 -17 vvcurveto
          -92 113 -55 105 154 124 116 133 164 -144 57 -163 8 vhcurveto
          5 31 5 25 10 36 rrcurveto
          endchar
        </CharString>
        <CharString name="foundryicon">
          -359 endchar
        </CharString>
        <CharString name="four">
          82 16 -21 135 146 -100 120 414 -20 hstemhm
          340 191 hintmask 11011000
          486 130 rmoveto
          87 17 88 81 15 hvcurveto
          -52 19 rlineto
          0 -10 -19 -6 -8 vhcurveto
          -9 -6 -12 -6 -15 hhcurveto
          -20 -24 2 0 hvcurveto
          32 159 39 139 73 vvcurveto
          41 -15 20 0 vhcurveto
          -86 -2 -60 -5 -55 -10 -94 -124 -173 -243 -54 -76 rrcurveto
          -10 -14 -2 -9 -5 vvcurveto
          -28 2 34 -38 20 hhcurveto
          hintmask 10111000
          16 32 20 62 hhcurveto
          38 35 -1 -4 31 hvcurveto
          -11 -52 -15 -88 -36 vvcurveto
          13 hlineto
          47 97 3 23 44 hvcurveto
          40 3 30 6 43 vhcurveto
          hintmask 11011000
          -3 18 16 -1 16 hhcurveto
          -208 163 rmoveto
          hintmask 10111000
          -41 2 -39 3 -52 -2 46 83 69 120 79 97 -1 -54 -30 -128 -31 -121 rrcurveto
          endchar
        </CharString>
        <CharString name="g">
          9 -224 74 155 97 260 81 hstemhm
          29 119 -71 138 hintmask 11101000
          271 -9 rmoveto
          -90 -20 -104 -32 -80 vvcurveto
          -54 49 -29 64 141 88 130 184 40 vhcurveto
          20 93 20 165 54 vvcurveto
          27 -5 10 0 vhcurveto
          -17 hlineto
          -35 -67 -7 -12 -39 hvcurveto
          10 -23 -34 13 -38 hhcurveto
          hintmask 11110000
          -112 -100 -107 -158 -121 59 -52 70 44 46 20 18 33 hvcurveto
          8 73 rmoveto
          -10 -19 -11 -4 -11 hhcurveto
          hintmask 11101000
          -19 -14 13 61 72 20 114 52 6 12 -2 -4 10 hvcurveto
          -9 -78 -10 -88 -7 -74 rrcurveto
          -116 -266 rmoveto
          hintmask 11110000
          -14 -10 -16 callsubr
          -64 -24 -41 -17 -19 hhcurveto
          endchar
        </CharString>
        <CharString name="germandbls">
          164 -134 -21 165 -21 676 66 hstemhm
          339 175 -58 58 -58 181 -120 152 hintmask 11101010
          669 154 rmoveto
          110 -155 83 67 vvcurveto
          hintmask 11100100
          67 123 15 111 vvcurveto
          92 -104 32 -94 -170 -83 -62 -233 -48 vhcurveto
          -1 -5 rlineto
          -84 hlineto
          -3 -17 -4 -27 -16 vvcurveto
          -16 1 -12 0 vhcurveto
          24 5 24 2 30 2 -15 -122 -23 -176 -62 -177 rrcurveto
          -17 31 85 -15 51 hhcurveto
          102 109 -11 718 120 hhcurveto
          29 17 -25 -41 hvcurveto
          hintmask 11110010
          -152 -117 16 -85 -121 178 -94 -75 vvcurveto
          -11 -8 -8 -18 -3 vhcurveto
          -31 63 -42 38 -23 7 rrcurveto
          -41 -10 -58 -71 -22 vvcurveto
          -32 87 -50 75 103 108 59 106 vhcurveto
          endchar
        </CharString>
        <CharString name="grave">
          137 520 -21 197 -20 hstem
          489 -78 callsubr
          endchar
        </CharString>
        <CharString name="grave.cap">
          66 756 -21 170 -20 hstem
          468 788 -32 callgsubr
        </CharString>
        <CharString name="greater">
          -69 108 -21 396 -20 hstem
          52 187 rmoveto
          -30 4 -35 11 -35 vhcurveto
          367 158 rlineto
          64 vlineto
          -362 174 rlineto
          -12 -35 -8 -40 -23 vvcurveto
          231 -107 rlineto
          endchar
        </CharString>
        <CharString name="guillemotleft">
          24 -5 callsubr
          253 502 -76 callgsubr
          155 41 -76 callgsubr
          endchar
        </CharString>
        <CharString name="guillemotright">
          55 -5 callsubr
          302 95 -53 callgsubr
          -155 -41 -50 callsubr
          -46 -40 callsubr
          endchar
        </CharString>
        <CharString name="guilsinglleft">
          -152 -5 callsubr
          278 502 -76 callgsubr
          endchar
        </CharString>
        <CharString name="guilsinglright">
          -141 114 -21 407 -20 hstem
          100 93 -53 callgsubr
          endchar
        </CharString>
        <CharString name="h">
          45 9 -21 25 -21 742 -19 callsubr
          hintmask 01101000
          -27 callsubr
          hintmask 01110010
          -162 -119 -344 -131 -51 callsubr
          hintmask 10110100
          -39 callsubr
          hintmask 01110001
          -9 callgsubr
          hintmask 01101000
          26 111 25 108 69 vvcurveto
          endchar
        </CharString>
        <CharString name="hbar">
          45 9 -21 25 -21 533 75 134 -19 callsubr
          hintmask 0111010000000000
          -27 callsubr
          -18 -2 -21 -2 -22 vhcurveto
          -97 hlineto
          -5 -22 0 -39 -14 vvcurveto
          90 hlineto
          hintmask 0111100100000000
          -33 -173 -70 -227 -101 -51 callsubr
          hintmask 1011101000000000
          -39 callsubr
          hintmask 0111100010000000
          -9 callgsubr
          11 45 10 45 9 42 rrcurveto
          131 hlineto
          3 15 2 41 19 vvcurveto
          -123 hlineto
          hintmask 0111010000000000
          5 30 3 28 23 vvcurveto
          endchar
        </CharString>
        <CharString name="hyphen">
          -76 241 88 hstem
          382 241 rmoveto
          4 19 3 34 35 vvcurveto
          -331 hlineto
          -4 -17 -3 -42 -29 vvcurveto
          endchar
        </CharString>
        <CharString name="i">
          9 -21 528 174 -23 callsubr
          -171 203 hintmask 11100000
          219 115 -98 callsubr
          hintmask 11001000
          -121 487 rmoveto
          -69 callsubr
          endchar
        </CharString>
        <CharString name="iacute">
          9 -21 716 -1 callsubr
          vstemhm
          78 504 rmoveto
          88 14 120 33 34 15 rrcurveto
          27 12 10 14 24 6 callsubr
          51 -12 17 vhcurveto
          -90 -59 -80 -46 -86 -45 rrcurveto
          158 -439 rmoveto
          -101 callsubr
          endchar
        </CharString>
        <CharString name="icircumflex">
          9 -21 716 -20 -23 callsubr
          hintmask 11100000
          36 -51 callgsubr
          215 -433 -98 callsubr
          endchar
        </CharString>
        <CharString name="idieresis">
          9 -21 542 12 callgsubr
          33 157 -108 -28 callsubr
          -46 152 hintmask 11100100
          38 602 rmoveto
          -43 28 -29 41 50 33 -2 callgsubr
          185 hmoveto
          -43 28 -29 41 49 34 -2 callgsubr
          hintmask 11010100
          -4 -487 rmoveto
          hintmask 11001000
          -96 callsubr
          hintmask 11100100
          -94 callgsubr
          vhcurveto
          hintmask 11010100
          -6 -5 7 18 hvcurveto
          endchar
        </CharString>
        <CharString name="igrave">
          9 -21 707 -20 -23 callsubr
          hintmask 11100000
          350 546 rmoveto
          68 -87 -104 81 -44 hhcurveto
          -33 -27 -55 -47 -16 hvcurveto
          92 -21 80 -30 113 -44 rrcurveto
          -105 -383 -98 callsubr
          endchar
        </CharString>
        <CharString name="ij">
          94 -224 101 132 -21 528 174 hstemhm
          33 186 -137 -28 callsubr
          -172 203 83 193 -168 203 hintmask 1111000100000000
          503 -36 rmoveto
          30 119 43 228 8 callgsubr
          -76 -18 0 vhcurveto
          -2 -16 rlineto
          0 40 -45 -33 vvcurveto
          -56 -15 -85 -18 -92 vhcurveto
          -146 -28 -22 -70 -51 hhcurveto
          -23 -28 10 22 -32 hvcurveto
          -32 -43 rlineto
          -64 55 59 -26 66 hhcurveto
          84 76 58 130 29 hvcurveto
          hintmask 1110001010000000
          -95 638 rmoveto
          -69 callsubr
          -311 hmoveto
          -69 callsubr
          hintmask 1110100100000000
          122 -487 rmoveto
          hintmask 1110010100000000
          -96 callsubr
          hintmask 1110100100000000
          -46 callgsubr
        </CharString>
        <CharString name="itilde">
          9 -21 542 116 -86 86 -86 116 7 -20 hstemhm
          33 186 -137 137 hintmask 10101100
          271 530 rmoveto
          73 16 79 64 5 hvcurveto
          -47 10 rlineto
          -30 -14 -12 -7 -20 hhcurveto
          hintmask 10010100
          -45 -61 30 -39 hhcurveto
          -80 -18 -82 -67 -6 hvcurveto
          49 -12 rlineto
          37 17 16 8 22 hhcurveto
          hintmask 11001010
          38 69 -30 37 hhcurveto
          -52 -415 rmoveto
          -96 callsubr
          -46 callgsubr
        </CharString>
        <CharString name="j">
          -201 -224 94 646 174 hstemhm
          89 187 -162 203 hintmask 11100000
          -77 callgsubr
          hintmask 11010000
          -104 595 rmoveto
          -69 callsubr
          endchar
        </CharString>
        <CharString name="jcircumflex">
          -196 -224 96 832 -20 hstem
          89 187 vstem
          32 -51 callgsubr
          218 -541 rmoveto
          31 119 27 185 8 callgsubr
          -70 -18 0 vhcurveto
          -2 -16 rlineto
          0 40 -45 -33 vvcurveto
          -56 -13 -87 -16 -90 vhcurveto
          -183 -33 -33 -38 -44 hhcurveto
          -35 -42 27 0 hvcurveto
          -32 -43 rlineto
          -46 45 62 -34 63 hhcurveto
          100 67 80 151 40 hvcurveto
          endchar
        </CharString>
        <CharString name="k">
          52 -12 -20 callgsubr
          hintmask 10110110
          -81 callsubr
          hintmask 01111010
          -64 callgsubr
          endchar
        </CharString>
        <CharString name="kcommaaccent">
          52 -257 -21 266 -20 callgsubr
          hintmask 11011011
          -81 callsubr
          hintmask 10111101
          -64 callgsubr
          -22 -526 -46 callsubr
        </CharString>
        <CharString name="kgreenlandic">
          63 -12 98 -71 -21 356 84 9 -2 callsubr
          160 182 hintmask 10011100
          276 -84 callsubr
          -57 -56 -22 -21 -38 vhcurveto
          -6 -3 -4 -3 -5 -3 rrcurveto
          hintmask 01101100
          -4 23 -9 20 -83 callsubr
          88 38 135 16 82 vhcurveto
          11 13 41 21 28 -23 callgsubr
          endchar
        </CharString>
        <CharString name="l">
          -202 9 -21 746 2 callgsubr
          hintmask 11010000
          300 56 -28 callgsubr
          vhcurveto
          hintmask 11001000
          96 101 345 128 -57 callgsubr
          hintmask 11100000
          -18 callgsubr
        </CharString>
        <CharString name="ldot">
          -75 9 -21 306 149 291 2 callgsubr
          -17 155 hintmask 11101010
          294 365 -18 callsubr
          6 -309 -28 callgsubr
          vhcurveto
          hintmask 11100100
          96 101 345 128 -57 callgsubr
          hintmask 11110010
          -18 callgsubr
        </CharString>
        <CharString name="less">
          -53 108 -21 398 -20 hstem
          187 278 rmoveto
          232 107 rlineto
          16 -2 43 -14 41 vhcurveto
          -366 -176 rlineto
          -64 vlineto
          367 -158 rlineto
          11 35 4 37 28 vvcurveto
          endchar
        </CharString>
        <CharString name="logicalnot">
          -44 296 93 hstemhm
          307 97 vstemhm
          52 389 rmoveto
          -6 -32 0 -50 -11 vvcurveto
          261 hlineto
          hintmask 11000000
          -139 vlineto
          47 19 1 11 31 hvcurveto
          220 vlineto
          endchar
        </CharString>
        <CharString name="lslash">
          -122 9 -21 746 -20 hstemhm
          53 185 -84 185 hintmask 11100000
          328 56 -28 callgsubr
          47 24 106 25 111 vhcurveto
          60 22 40 14 34 13 -1 16 -17 39 -10 15 -22 -8 -32 -15 -35 -13 rrcurveto
          hintmask 11010000
          19 88 16 84 50 -57 callgsubr
          -73 -16 -88 -19 -86 vhcurveto
          -45 -18 -47 -16 -28 -12 4 -19 16 -39 10 -14 14 6 26 12 29 12 rrcurveto
          hintmask 11100000
          -23 -96 -22 -86 -49 -30 callgsubr
        </CharString>
        <CharString name="m">
          291 -3 callgsubr
          23 -21 333 113 hstemhm
          35 182 67 182 62 -63 callsubr
          hintmask 0011110100000000
          217 12 rmoveto
          91 37 129 16 81 vhcurveto
          9 15 18 7 11 hhcurveto
          9 5 -6 -13 hvcurveto
          -39 -44 -142 -93 vvcurveto
          -15 0 -14 3 -11 vhcurveto
          39 97 1 16 43 hvcurveto
          132 33 100 11 67 vhcurveto
          10 14 19 7 12 hhcurveto
          9 6 -5 -16 hvcurveto
          hintmask 1001111000000000
          -43 -42 -122 -68 vvcurveto
          -64 38 -23 48 59 81 34 30 37 vhcurveto
          -71 callgsubr
          -43 -13 -9 -4 -4 2 18 vhcurveto
          hintmask 0101110010000000
          60 44 109 65 vvcurveto
          58 -35 41 -61 -64 -64 -44 -18 -24 vhcurveto
          36 -11 -31 26 -44 hhcurveto
          -53 -62 -36 -21 -32 hvcurveto
          -4 26 -11 23 0 vvcurveto
          -147 -58 -70 callsubr
          -33 -35 -43 -55 -173 -122 vvcurveto
          25 hlineto
          42 76 3 15 39 hvcurveto
          endchar
        </CharString>
        <CharString name="macron">
          3 582 82 -68 -21 hstemhm
          hintmask 01000000
          135 575 rmoveto
          hintmask 10000000
          5 39 142 2 57 hhcurveto
          47 62 -3 -1 16 hvcurveto
          0 6 36 3 50 vhcurveto
          -371 hlineto
          -2 -13 -2 -19 -22 vvcurveto
          hintmask 01000000
          -20 3 -15 0 vhcurveto
          endchar
        </CharString>
        <CharString name="mu">
          45 -197 -21 206 101 345 -14 callgsubr
          -2 150 -150 227 -132 187 66 182 hintmask 11100011
          93 336 rmoveto
          hintmask 11101001
          -63 -95 -231 -222 vvcurveto
          -16 2 -5 1 -17 vhcurveto
          83 6 46 11 42 17 -19 41 -9 72 4 60 52 5 55 26 36 23 rrcurveto
          -41 10 32 -14 38 hhcurveto
          59 83 35 30 36 hvcurveto
          -71 callgsubr
          -41 -14 -9 -4 -4 2 17 vhcurveto
          4 57 51 189 80 vvcurveto
          -28 hlineto
          -47 -68 -3 -17 -39 hvcurveto
          -99 -47 -153 -10 -66 vhcurveto
          -4 -11 -12 -3 -11 hhcurveto
          hintmask 11100101
          0 callsubr
          hintmask 11010011
          55 55 -9 callsubr
          -23 -113 -1 -58 callsubr
          -13 -23 vvcurveto
          endchar
        </CharString>
        <CharString name="multiply">
          12 112 -21 385 -20 hstem
          388 91 rmoveto
          13 12 33 29 15 29 -124 124 rcurveline
          122 122 -14 20 -22 23 -27 26 rlinecurve
          -125 -125 -124 125 -27 -26 -22 -23 -14 -20 rlinecurve
          122 -122 -124 -124 13 -29 35 -29 13 -12 rlinecurve
          128 128 rlineto
          endchar
        </CharString>
        <CharString name="n">
          55 -3 callgsubr
          448 -44 callgsubr
          hintmask 10110100
          220 13 -86 callgsubr
        </CharString>
        <CharString name="nacute">
          55 -3 callgsubr
          713 -44 callgsubr
          hintmask 10110100
          206 -93 callsubr
          31 -538 -86 callgsubr
        </CharString>
        <CharString name="nbspace">
          -299 endchar
        </CharString>
        <CharString name="nine">
          61 -12 99 181 87 279 76 hstem
          43 197 125 193 vstem
          71 147 rmoveto
          -48 -49 rlineto
          -71 47 76 -39 88 hhcurveto
          207 117 219 223 191 -86 89 -150 -166 -113 -108 -141 -110 69 -83 126 42 39 9 10 30 hvcurveto
          -142 -18 -58 -58 -70 hhcurveto
          -36 -46 15 45 -50 hvcurveto
          230 208 rmoveto
          -48 -13 49 56 78 26 96 49 39 11 -63 -77 -47 -4 -43 -5 -31 hvcurveto
          -10 -15 -20 -8 -20 hhcurveto
          endchar
        </CharString>
        <CharString name="ntilde">
          55 -3 callgsubr
          528 118 -86 86 -86 118 5 -44 callgsubr
          hintmask 1001011100000000
          433 522 -66 callsubr
          hintmask 1000101100000000
          -52 -83 32 -45 hhcurveto
          -89 -21 -84 -67 -6 hvcurveto
          52 -12 rlineto
          37 19 18 8 26 hhcurveto
          hintmask 1010011010000000
          -1 callgsubr
          -213 -509 -57 callsubr
          hintmask 1010011100000000
          -72 callsubr
          hintmask 0110011001000000
          -86 callsubr
        </CharString>
        <CharString name="numbersign">
          115 10 -21 159 108 -108 112 89 111 158 -20 hstemhm
          hintmask 11011000
          434 10 rmoveto
          4 43 6 44 8 53 rrcurveto
          -2 27 13 0 30 hhcurveto
          46 16 27 36 11 -2 21 -1 13 hvcurveto
          -7 -49 -39 -2 -27 hhcurveto
          6 39 8 30 5 36 rrcurveto
          -2 26 13 -1 27 hhcurveto
          47 15 31 36 12 0 12 -3 20 hvcurveto
          -3 -46 -37 0 -27 hhcurveto
          10 51 7 49 28 vvcurveto
          16 -5 17 0 -24 -30 -2 -27 -71 vhcurveto
          1 -4 0 -11 -3 vvcurveto
          -31 -5 -36 -7 -48 vhcurveto
          -22 1 -37 0 -16 1 rrcurveto
          11 58 8 42 27 vvcurveto
          16 -6 17 0 -24 -28 -2 -27 -69 vhcurveto
          1 -4 0 -11 -3 vvcurveto
          -29 -5 -36 -8 -45 vhcurveto
          -11 hlineto
          -65 -62 -7 0 hvcurveto
          2 -56 17 -53 0 vvcurveto
          31 8 34 1 38 2 rrcurveto
          hintmask 10111000
          -7 -37 -7 -22 -8 -37 rrcurveto
          -3 hlineto
          -65 -58 -9 0 hvcurveto
          3 -57 11 -51 0 vvcurveto
          31 8 28 3 33 2 -16 -76 -11 -59 -2 -32 rrcurveto
          21 hlineto
          39 44 7 18 23 hvcurveto
          4 44 8 44 10 56 rrcurveto
          39 hlineto
          10 29 0 -1 9 hvcurveto
          -13 -79 -11 -56 -1 -33 rrcurveto
          11 hlineto
          40 52 2 19 26 hvcurveto
          -130 350 rmoveto
          12 38 0 -1 10 hvcurveto
          -6 -39 -7 -25 -6 -40 -86 3 rcurveline
          9 40 9 28 7 34 rrcurveto
          endchar
        </CharString>
        <CharString name="o">
          -58 callgsubr
          hstemhm
          20 188 60 174 hintmask 10111000
          442 312 -74 callsubr
          hintmask 11011000
          -107 callsubr
        </CharString>
        <CharString name="oacute">
          -58 callgsubr
          284 -21 callgsubr
          hintmask 10111100
          170 -93 callsubr
          289 -239 -99 callgsubr
        </CharString>
        <CharString name="ocircumflex">
          -58 callgsubr
          281 -21 callgsubr
          hintmask 10111100
          117 -85 callsubr
          357 -236 -99 callgsubr
        </CharString>
        <CharString name="odieresis">
          -58 callgsubr
          107 12 callgsubr
          20 188 -109 167 2 174 -132 167 hintmask 11010101
          99 602 -88 callsubr
          hintmask 10111010
          132 -290 -74 callsubr
          hintmask 11011010
          -107 callsubr
        </CharString>
        <CharString name="oe">
          255 -12 95 296 64 hstem
          20 188 419 143 vstem
          327 428 rmoveto
          0 -27 15 -49 -144 -87 -133 -136 -124 73 -62 95 91 60 57 49 37 vhcurveto
          -53 17 50 -53 92 hhcurveto
          117 95 85 0 hvcurveto
          -30 47 rlineto
          0 -47 -37 -51 -54 -23 42 57 vhcurveto
          0 228 22 136 vvcurveto
          74 -67 29 -74 -75 -72 -29 -57 -54 vhcurveto
          33 -1 -21 41 -47 hhcurveto
          -8 -12 0 -3 -12 hvcurveto
          -70 -340 rmoveto
          -21 -28 17 85 101 40 68 7 4 hvcurveto
          11 4 -2 0 hvcurveto
          -2 -11 -2 -23 -19 vvcurveto
          -56 17 -53 74 -7 vhcurveto
          -57 -21 -43 -47 -36 hhcurveto
          344 291 rmoveto
          16 10 -13 -24 -45 -37 -40 -47 -12 hvcurveto
          54 18 80 40 vhcurveto
          endchar
        </CharString>
        <CharString name="ograve">
          -58 callgsubr
          273 -21 callgsubr
          hintmask 10111100
          463 -78 callsubr
          5 -187 -99 callgsubr
        </CharString>
        <CharString name="one">
          -101 14 -21 717 -20 hstemhm
          88 196 -86 193 hintmask 11100000
          284 17 rmoveto
          hintmask 11010000
          209 107 310 106 vvcurveto
          41 -11 27 0 -98 -76 -13 0 vhcurveto
          -177 -107 rlineto
          0 19 -54 42 -23 vhcurveto
          25 26 45 36 38 24 rrcurveto
          hintmask 11100000
          -130 -110 -276 -200 vvcurveto
          6 hlineto
          47 102 2 22 41 hvcurveto
          endchar
        </CharString>
        <CharString name="onehalf">
          292 -24 90 217 82 369 -14 callgsubr
          592 141 hintmask 11011000
          640 -80 callsubr
          112 -615 -52 callgsubr
          43 -31 rlineto
          31 23 25 -7 callsubr
          2 -10 -9 0 -42 callgsubr
          -656 534 -73 callgsubr
          hintmask 11101000
          10 callgsubr
          -36 callsubr
          endchar
        </CharString>
        <CharString name="onequarter">
          291 -3 callgsubr
          740 -14 callgsubr
          hintmask 10010000
          640 -88 callgsubr
          hintmask 01100000
          -26 callgsubr
          -578 549 -73 callgsubr
          10 callgsubr
          -36 callsubr
          442 -507 -30 callsubr
        </CharString>
        <CharString name="onesuperior">
          -187 370 -21 384 -14 callgsubr
          hintmask 10100000
          106 614 -73 callgsubr
          10 callgsubr
          hintmask 11000000
          -36 callsubr
          endchar
        </CharString>
        <CharString name="ordfeminine">
          -85 309 79 -57 -21 292 62 hstemhm
          53 134 38 124 hintmask 10111000
          236 339 rmoveto
          -22 11 21 -8 20 hhcurveto
          40 52 33 19 19 hvcurveto
          -14 35 rlineto
          0 -20 -8 -8 -3 -5 2 8 42 21 125 22 66 vhcurveto
          18 -62 -35 15 -50 hhcurveto
          -120 -72 -104 -124 hvcurveto
          hintmask 01111000
          -83 45 -43 57 27 25 10 19 29 vhcurveto
          6 263 rmoveto
          6 9 -2 -1 4 hvcurveto
          -18 -70 -13 -65 -5 -64 rrcurveto
          0 -11 -10 -10 -12 -5 20 28 64 22 100 33 vhcurveto
          endchar
        </CharString>
        <CharString name="ordmasculine">
          -168 306 67 220 67 hstem
          44 127 76 126 vstem
          171 447 rmoveto
          62 18 84 34 20 4 -20 -29 -77 -17 -94 -35 -19 -5 21 53 vhcurveto
          202 84 rmoveto
          67 -36 62 -95 -118 -80 -90 -134 -73 43 -57 89 141 56 124 101 vhcurveto
          endchar
        </CharString>
        <CharString name="oslash">
          -55 443 -20 hstem
          20 151 184 80 vstem
          275 443 rmoveto
          -168 -87 -130 -135 -100 54 -63 81 -14 hvcurveto
          -22 -66 19 -7 15 -4 30 -8 26 2 rlinecurve
          8 33 8 29 7 26 rrcurveto
          119 36 70 146 98 vvcurveto
          65 -25 46 -44 24 vhcurveto
          27 79 -22 14 -38 18 -28 -2 rlinecurve
          -9 -32 -7 -29 -7 -26 rrcurveto
          -94 -342 rmoveto
          -14 16 -3 26 26 vvcurveto
          60 29 127 67 27 vhcurveto
          -28 -109 -18 -70 -33 -103 rrcurveto
          155 250 rmoveto
          7 -15 5 -20 -26 vvcurveto
          -59 -31 -93 -54 -36 vhcurveto
          23 87 18 64 32 98 rrcurveto
          endchar
        </CharString>
        <CharString name="otilde">
          -58 callgsubr
          105 118 -86 86 -86 118 5 -21 callgsubr
          hintmask 1100101110000000
          372 528 -66 callsubr
          hintmask 1100010110000000
          -52 -83 32 -45 hhcurveto
          -89 -21 -84 -67 -6 hvcurveto
          52 -12 rlineto
          37 19 18 8 26 hhcurveto
          hintmask 1011001110000000
          -1 callgsubr
          70 -216 -74 callsubr
          hintmask 1101001110000000
          -107 callsubr
        </CharString>
        <CharString name="p">
          13 9 callgsubr
          84 269 95 7 -20 hstemhm
          -10 183 -106 184 69 180 hintmask 11011010
          173 -193 rmoveto
          83 10 52 13 64 vhcurveto
          -15 37 31 -3 22 hhcurveto
          149 65 135 139 134 -61 47 -69 -42 -40 -18 -28 -39 hvcurveto
          hintmask 11100110
          -5 24 -8 15 0 vvcurveto
          -143 -60 -70 callsubr
          -19 -79 vvcurveto
          hintmask 11101010
          -115 -77 -263 -104 vvcurveto
          -33 8 -13 0 vhcurveto
          61 3 75 14 39 14 rrcurveto
          hintmask 11100110
          78 523 rmoveto
          7 16 14 4 10 hhcurveto
          23 6 -23 -36 -69 -22 -141 -58 -7 -12 2 3 -10 hvcurveto
          17 84 17 83 6 86 rrcurveto
          endchar
        </CharString>
        <CharString name="paragraph">
          144 -146 -21 864 -20 hstem
          364 140 5 138 vstem
          304 -144 rmoveto
          7 81 31 142 32 120 40 151 35 148 6 105 rrcurveto
          3 10 30 1 14 hhcurveto
          -109 -40 -133 -35 -144 vhcurveto
          -35 -143 -33 -137 -2 -83 rrcurveto
          30 hlineto
          52 58 26 0 138 54 182 34 136 hvcurveto
          27 110 28 93 84 vvcurveto
          39 -7 31 0 vhcurveto
          -256 hlineto
          -209 -121 -150 -185 -128 68 -72 107 -4 hvcurveto
          -32 -141 -26 -127 -3 -57 rrcurveto
          30 hlineto
          59 47 23 0 hvcurveto
          endchar
        </CharString>
        <CharString name="parenleft">
          -120 -12 callgsubr
          76 160 vstem
          236 55 rmoveto
          178 30 317 150 137 vhcurveto
          -31 47 rlineto
          -3 -306 -159 -405 -304 173 -90 0 hvcurveto
          39 39 rlineto
          -39 56 -13 67 117 vvcurveto
          endchar
        </CharString>
        <CharString name="parenright">
          -96 -12 callgsubr
          183 160 vstem
          183 455 rmoveto
          -178 -30 -317 -150 -137 vhcurveto
          31 -47 rlineto
          3 306 159 405 304 -173 90 0 hvcurveto
          -39 -39 rlineto
          39 -56 13 -67 -117 vvcurveto
          endchar
        </CharString>
        <CharString name="percent">
          365 -17 55 -29 -21 328 56 -29 29 -29 55 278 56 3 -20 hstemhm
          38 138 86 138 98 138 86 138 hintmask 1001010111100000
          860 232 -31 callgsubr
          -460 360 -31 callgsubr
          269 117 rmoveto
          hintmask 0110001111100000
          15 -44 -42 11 -46 hhcurveto
          -89 -279 -156 -179 -74 -258 rrcurveto
          -21 34 54 -10 36 hhcurveto
          9 hlineto
          74 278 163 188 88 252 rrcurveto
          -500 -225 rmoveto
          hintmask 1000110111100000
          -20 callsubr
          460 -360 rmoveto
          hintmask 1010010111100000
          -20 callsubr
          endchar
        </CharString>
        <CharString name="period">
          -227 -12 179 hstem
          40 191 vstem
          40 73 rmoveto
          -49 29 -36 59 56 47 46 51 47 -28 35 -60 -55 -48 -41 -53 vhcurveto
          endchar
        </CharString>
        <CharString name="periodcentered">
          -174 242 179 hstem
          71 191 vstem
          71 327 rmoveto
          -49 29 -36 59 56 47 46 51 47 -28 35 -60 -55 -48 -41 -53 vhcurveto
          endchar
        </CharString>
        <CharString name="plus">
          29 103 -21 150 92 145 -20 hstem
          214 95 vstem
          465 232 rmoveto
          3 10 2 47 35 vvcurveto
          -161 145 hlineto
          -23 -28 -2 -12 -44 hvcurveto
          -131 -149 vlineto
          -3 -26 -1 -32 -34 vvcurveto
          153 -150 16 hlineto
          18 30 2 14 32 hvcurveto
          134 vlineto
          endchar
        </CharString>
        <CharString name="plusminus">
          84 9 93 201 93 145 -20 hstem
          493 303 rmoveto
          3 9 2 48 36 vvcurveto
          -170 145 hlineto
          -22 -42 0 -5 -32 hvcurveto
          -140 -151 vlineto
          -3 -25 -1 -35 -33 vvcurveto
          155 -150 7 hlineto
          19 41 0 8 30 hvcurveto
          142 vlineto
          165 -294 rmoveto
          5 24 0 32 37 vvcurveto
          -412 hlineto
          -11 -30 1 -45 -18 vvcurveto
          endchar
        </CharString>
        <CharString name="q">
          19 9 callgsubr
          102 271 82 hstemhm
          29 188 2 184 -83 186 hintmask 11111000
          403 -193 rmoveto
          hintmask 11110100
          153 103 308 131 vvcurveto
          18 -2 16 -6 8 vhcurveto
          -23 -58 -1 -20 -81 hvcurveto
          9 -16 -40 14 -39 hhcurveto
          -114 -98 -120 -166 -125 56 -44 68 36 33 12 20 34 hvcurveto
          hintmask 11111000
          -19 -81 -18 -77 -56 vvcurveto
          -10 0 -11 1 -9 vhcurveto
          11 hlineto
          59 61 7 24 52 hvcurveto
          -128 291 rmoveto
          -6 -13 -13 -2 -7 hhcurveto
          -21 -4 18 34 82 23 137 54 hvcurveto
          hintmask 11110100
          7 10 -2 -3 9 hvcurveto
          -2 -72 -21 -93 -22 -93 rrcurveto
          endchar
        </CharString>
        <CharString name="question">
          -92 -12 168 554 -20 hstemhm
          71 196 -165 165 14 129 hintmask 11011000
          323 367 rmoveto
          36 44 51 61 66 vvcurveto
          97 -77 75 -129 -94 -61 -63 -25 -21 72 -65 50 -7 vhcurveto
          21 20 33 45 24 42 rrcurveto
          13 19 -5 -13 -22 -26 -45 -75 -92 hvcurveto
          -40 -49 -38 -47 -42 vvcurveto
          -80 81 -39 111 vhcurveto
          10 14 8 18 5 21 rrcurveto
          -24 8 -29 8 12 vvcurveto
          19 59 65 0 vhcurveto
          hintmask 11101000
          -252 -300 rmoveto
          -46 33 -33 61 59 43 46 44 42 -24 36 -62 -59 -51 -39 -50 vhcurveto
          endchar
        </CharString>
        <CharString name="questiondown">
          -131 -260 -21 554 168 hstemhm
          -12 129 14 165 -165 196 hintmask 11110000
          75 62 rmoveto
          -36 -44 -51 -61 -66 vvcurveto
          -97 77 -75 129 94 61 63 25 21 -72 65 -50 7 vhcurveto
          -21 -20 -33 -45 -24 -42 rrcurveto
          -13 -19 5 13 22 26 45 75 92 hvcurveto
          40 49 38 47 42 vvcurveto
          80 -81 39 -111 vhcurveto
          -10 -14 -8 -18 -5 -21 rrcurveto
          24 -8 29 -8 -12 vvcurveto
          -19 -59 -65 0 vhcurveto
          hintmask 11101000
          252 300 rmoveto
          46 -33 33 -61 -59 -43 -46 -44 -42 24 -36 62 59 51 39 50 vhcurveto
          endchar
        </CharString>
        <CharString name="quotedbl">
          -106 448 -21 305 -20 hstem
          100 139 28 -44 callsubr
          229 -11 rmoveto
          26 56 60 148 43 vvcurveto
          45 -38 13 -53 -12 -13 -1 -1 -13 vhcurveto
          -19 -292 rlineto
          endchar
        </CharString>
        <CharString name="quotedblbase">
          21 -147 -12 callsubr
          64 190 24 190 vstem
          254 49 -52 callsubr
          214 hmoveto
          -76 callsubr
        </CharString>
        <CharString name="quotedblleft">
          16 -13 callsubr
          90 190 24 190 vstem
          304 518 rmoveto
          -47 callgsubr
          -214 hmoveto
          -47 callgsubr
          endchar
        </CharString>
        <CharString name="quotedblright">
          20 -13 callsubr
          101 190 24 -61 callsubr
          214 hmoveto
          -76 callsubr
        </CharString>
        <CharString name="quoteleft">
          -198 -13 callsubr
          90 190 vstem
          90 518 rmoveto
          -29 callsubr
          -72 50 5 29 13 -36 callgsubr
          endchar
        </CharString>
        <CharString name="quoteright">
          -194 -13 callsubr
          101 -61 callsubr
          endchar
        </CharString>
        <CharString name="quotesinglbase">
          -192 -151 -12 callsubr
          64 190 vstem
          254 45 rmoveto
          -76 callsubr
        </CharString>
        <CharString name="quotesingle">
          -263 448 -21 305 -20 hstem
          100 -44 callsubr
          endchar
        </CharString>
        <CharString name="r">
          -107 15 -21 449 -20 hstem
          38 185 vstem
          224 11 rmoveto
          0 -1 16 14 vvcurveto
          71 26 108 14 77 vhcurveto
          10 13 12 8 -17 callsubr
          40 61 0 vvcurveto
          73 -4 -22 30 -41 hhcurveto
          -41 -34 -31 -37 -33 hvcurveto
          -49 callgsubr
          -33 -36 -42 -49 -189 -74 -37 callgsubr
          endchar
        </CharString>
        <CharString name="rcaron">
          -107 15 -21 440 70 -61 -20 283 -20 hstemhm
          38 185 hintmask 10111000
          -68 callgsubr
          hintmask 11011000
          -60 callgsubr
          165 695 rmoveto
          -43 -30 -63 -40 -53 -17 -36 16 -33 32 -39 35 -34 -31 rcurveline
          -34 17 66 -133 29 hhcurveto
          33 126 97 65 58 hvcurveto
          endchar
        </CharString>
        <CharString name="rcommaaccent">
          -107 -257 -21 293 -21 449 -20 hstem
          38 185 vstem
          -68 callgsubr
          -60 callgsubr
          -106 -289 -46 callsubr
        </CharString>
        <CharString name="registered">
          295 -15 70 92 73 -73 227 263 70 hstemhm
          32 87 329 152 97 85 hintmask 10111110
          420 504 rmoveto
          21 7 -17 -26 -68 -30 -17 -32 -2 hvcurveto
          7 50 4 39 6 40 rrcurveto
          0 11 1 6 vhcurveto
          87 -357 rmoveto
          48 39 21 19 24 hvcurveto
          -15 35 rlineto
          hintmask 11011110
          0 -9 -2 -13 -18 -37 74 43 -18 vhcurveto
          63 23 29 52 52 vvcurveto
          66 -67 37 -87 -107 -94 -23 0 vhcurveto
          -5 -26 rlineto
          0 21 -29 -20 vvcurveto
          -64 -39 -151 -12 -99 vhcurveto
          -5 20 8 0 8 hhcurveto
          31 46 0 17 39 hvcurveto
          1 34 6 50 9 57 rrcurveto
          10 hlineto
          -82 21 -3 -79 101 hhcurveto
          -475 196 -78 callgsubr
        </CharString>
        <CharString name="ring">
          -41 516 68 86 67 hstem
          121 75 86 79 vstem
          121 -26 callsubr
          -19 callgsubr
          endchar
        </CharString>
        <CharString name="ring.cap">
          -50 739 64 75 63 hstem
          121 73 82 76 vstem
          121 -61 callgsubr
          endchar
        </CharString>
        <CharString name="s">
          -114 9 -21 395 60 hstemhm
          63 169 -27 167 -59 59 hintmask 11010000
          317 243 rmoveto
          34 37 21 40 35 vvcurveto
          56 -53 32 -80 vhcurveto
          hintmask 11101000
          -79 -97 -31 -93 -37 16 -31 44 -54 hvcurveto
          hintmask 11010000
          38 -46 44 -49 -28 vvcurveto
          -17 -17 -2 -12 vhcurveto
          -22 51 -24 40 -37 20 rrcurveto
          -46 -8 -47 -68 -25 vvcurveto
          -30 69 -47 98 116 85 65 82 34 -19 37 -32 37 vhcurveto
          -42 47 10 callsubr
          -26 29 -17 19 16 vvcurveto
          14 11 15 26 21 23 -9 -22 -21 -20 -28 -18 -13 vhcurveto
          endchar
        </CharString>
        <CharString name="section">
          3 -153 -21 840 68 hstemhm
          29 170 -82 168 -57 163 -80 185 -98 98 hintmask 11010010
          285 607 rmoveto
          38 -1 22 21 41 hhcurveto
          29 22 -16 -29 -27 -23 -29 -19 -14 hvcurveto
          19 -28 26 -13 35 -6 rrcurveto
          42 36 18 38 35 vvcurveto
          66 -65 55 -91 -112 -111 -61 -97 -45 21 -44 36 -46 vhcurveto
          hintmask 11101010
          -85 -25 -60 -53 -77 -142 199 -110 -101 vvcurveto
          -20 -5 -13 -29 -7 vhcurveto
          -17 46 -17 46 -45 30 -47 -13 -60 -54 -3 -39 rrcurveto
          -28 81 -55 108 112 85 62 90 40 -19 48 -38 48 vhcurveto
          86 33 66 55 70 vvcurveto
          hintmask 11010100
          132 -197 112 -4 91 vhcurveto
          3 -424 rmoveto
          hintmask 11100100
          -42 47 -47 46 39 vvcurveto
          27 11 21 16 13 vhcurveto
          42 -52 43 -44 -40 vvcurveto
          -18 -5 -21 -18 -18 vhcurveto
          endchar
        </CharString>
        <CharString name="semicolon">
          -158 -169 -21 454 179 hstemhm
          54 202 -160 191 hintmask 11100000
          256 -54 callsubr
          hintmask 11010000
          -160 308 rmoveto
          -49 29 -36 59 56 47 46 51 47 -28 35 -60 -55 -48 -41 -53 vhcurveto
          endchar
        </CharString>
        <CharString name="seven">
          -39 14 -21 557 144 -144 159 hstemhm
          hintmask 11000000
          511 702 rmoveto
          -6 -42 -34 -2 -34 hhcurveto
          hintmask 10100000
          -81 -58 15 -73 hhcurveto
          -45 -40 -1 -18 -46 hvcurveto
          0 -5 -26 -21 vvcurveto
          -59 24 -66 0 vhcurveto
          25 47 47 7 51 hhcurveto
          42 34 -6 -3 37 hvcurveto
          -80 -119 -98 -151 -42 -124 -20 -60 -8 -44 -6 -50 rrcurveto
          25 hlineto
          57 99 13 13 17 hvcurveto
          96 59 243 144 230 vhcurveto
          46 68 rlineto
          endchar
        </CharString>
        <CharString name="six">
          86 -12 76 276 84 76 210 -73 73 hstemhm
          48 194 125 199 hintmask 11011100
          391 637 rmoveto
          11 8 -3 -4 1 hvcurveto
          -15 -85 rlineto
          hintmask 11101100
          -32 33 51 -13 47 hhcurveto
          13 4 1 2 12 hvcurveto
          25 25 5 29 18 vvcurveto
          98 -86 37 -103 -204 -145 -209 -248 -188 93 -77 145 165 115 124 123 128 -92 61 -104 -36 -37 -8 -15 -35 vhcurveto
          hintmask 11011100
          133 21 44 103 64 hhcurveto
          -84 -297 rmoveto
          47 13 -40 -65 -76 -23 -95 -55 -36 -11 65 75 47 4 40 5 31 hvcurveto
          10 15 19 8 22 hhcurveto
          endchar
        </CharString>
        <CharString name="slash">
          -126 -91 -21 859 -20 hstem
          396 710 rmoveto
          -17 10 -28 18 -38 9 -109 -273 -110 -282 -102 -270 rrcurveto
          -23 23 26 -11 35 hhcurveto
          101 269 106 275 113 278 rrcurveto
          endchar
        </CharString>
        <CharString name="space">
          -299 endchar
        </CharString>
        <CharString name="sterling">
          52 -18 141 -113 -21 363 59 322 -20 hstemhm
          hintmask 01110000
          385 733 rmoveto
          -127 -90 -34 -194 -22 hvcurveto
          -11 -94 rlineto
          -57 hlineto
          -2 -15 -1 -15 -13 vvcurveto
          -19 3 -14 0 vhcurveto
          16 3 17 3 16 2 -10 -88 -8 -49 -12 -37 rrcurveto
          -50 -11 -58 -48 -11 vvcurveto
          -30 64 -80 16 17 56 28 52 41 vhcurveto
          hintmask 10110000
          -35 85 63 -52 72 hhcurveto
          65 43 55 127 27 hvcurveto
          -54 21 rlineto
          -29 -16 -18 -33 -36 hhcurveto
          -48 -87 20 15 -54 hvcurveto
          20 41 27 70 23 83 rrcurveto
          52 51 -2 -4 49 hvcurveto
          0 18 37 3 28 vhcurveto
          -158 hlineto
          6 28 6 29 5 30 15 97 7 32 21 25 rrcurveto
          7 7 7 3 6 hhcurveto
          18 8 -6 -3 3 hvcurveto
          -11 -87 rlineto
          -28 32 62 -10 44 hhcurveto
          23 29 10 28 25 vvcurveto
          73 -85 50 -109 vhcurveto
          endchar
        </CharString>
        <CharString name="t">
          -161 9 -21 373 70 160 -20 hstemhm
          53 186 -117 190 hintmask 11110000
          40 350 rmoveto
          18 2 26 3 27 2 rrcurveto
          -19 -111 -39 -95 -66 vvcurveto
          -70 43 -27 57 62 72 31 38 41 vhcurveto
          -24 48 rlineto
          -6 -13 -29 -12 -11 hhcurveto
          -11 -1 14 9 48 26 106 21 97 hvcurveto
          40 -2 28 -4 18 -1 rrcurveto
          0 17 29 48 vvcurveto
          -90 hlineto
          hintmask 11101000
          9 45 4 43 24 vvcurveto
          32 -7 16 0 -24 -70 -2 -30 -91 vhcurveto
          -4 2 -7 -30 vvcurveto
          -31 1 -29 -2 -27 vhcurveto
          -80 hlineto
          -3 -14 -2 -17 -12 vvcurveto
          -17 4 -21 0 vhcurveto
          endchar
        </CharString>
        <CharString name="thorn">
          -16 9 callgsubr
          87 269 98 292 -20 hstemhm
          -27 182 -44 186 -1 180 hintmask 11111010
          -27 -178 rmoveto
          -34 6 -12 0 vhcurveto
          61 3 76 14 39 13 rrcurveto
          64 6 68 10 68 vhcurveto
          -15 38 28 -3 32 hhcurveto
          142 65 132 157 112 -61 53 -71 -28 -31 -8 -15 -30 hvcurveto
          hintmask 11110100
          23 107 19 96 75 vvcurveto
          23 -5 14 0 -25 -68 -2 -29 -93 vhcurveto
          2 -10 3 -27 -4 vvcurveto
          hintmask 11111010
          -185 -138 -500 -155 vvcurveto
          264 516 rmoveto
          4 12 10 2 8 hhcurveto
          23 6 -23 -35 -71 -23 -140 -56 -10 -13 3 3 -11 hvcurveto
          16 87 20 87 18 83 rrcurveto
          endchar
        </CharString>
        <CharString name="three">
          14 -12 67 -67 221 405 96 hstemhm
          309 196 -184 184 hintmask 10101000
          130 530 rmoveto
          54 35 48 30 41 hhcurveto
          34 33 -24 -51 -78 -70 -33 -28 -9 hvcurveto
          -29 -9 -42 -3 0 vvcurveto
          -5 -64 rlineto
          0 19 2 21 vhcurveto
          hintmask 10110000
          83 39 -34 -84 -94 -45 -78 -60 -13 -15 4 7 -7 hvcurveto
          13 103 rlineto
          hintmask 01110000
          22 -27 -52 18 -52 hhcurveto
          -12 -12 -1 -1 -6 hvcurveto
          -19 -17 -10 -34 -26 vvcurveto
          -93 129 -49 106 146 132 96 130 96 -70 59 -93 15 vhcurveto
          95 21 73 69 85 vvcurveto
          83 -71 68 -123 -126 -82 -69 -83 -38 vhcurveto
          endchar
        </CharString>
        <CharString name="threequarters">
          366 -3 callgsubr
          350 50 273 67 1 -20 hstemhm
          214 155 hintmask 10101100
          715 -88 callgsubr
          hintmask 01110100
          -26 callgsubr
          -641 567 -31 callsubr
          -41 callgsubr
          -86 -49 99 -45 78 hhcurveto
          1 callgsubr
          hvcurveto
          -11 callgsubr
          507 -506 -30 callsubr
        </CharString>
        <CharString name="threesuperior">
          -143 344 50 137 203 -67 67 hstemhm
          219 155 hintmask 10110000
          120 632 -31 callsubr
          hintmask 11010000
          -41 callgsubr
          -9 -16 -4 -15 -13 vvcurveto
          -58 77 -29 64 1 callgsubr
          vhcurveto
          -11 callgsubr
          endchar
        </CharString>
        <CharString name="tilde">
          106 528 118 -110 -21 45 86 -86 118 5 -20 hstemhm
          hintmask 01101000
          390 528 -66 callsubr
          hintmask 01010000
          -52 -83 32 -45 hhcurveto
          -89 -21 -84 -67 -6 hvcurveto
          52 -12 rlineto
          37 19 18 8 26 hhcurveto
          hintmask 10001000
          -1 callgsubr
          endchar
        </CharString>
        <CharString name="tilde.cap">
          139 761 114 -101 -21 37 85 -85 114 1 -20 hstemhm
          hintmask 01101000
          425 761 -66 callgsubr
          hintmask 01010000
          -73 callsubr
          hintmask 10001000
          0 callgsubr
          endchar
        </CharString>
        <CharString name="two">
          32 -23 142 -142 202 -170 -21 608 114 hstemhm
          332 198 hintmask 10011000
          403 -23 rmoveto
          99 22 103 77 10 hvcurveto
          -53 18 rlineto
          -49 -27 -11 -7 -25 hhcurveto
          -64 -49 15 17 -56 hvcurveto
          94 73 187 171 145 vvcurveto
          92 -74 78 -123 -149 -92 -97 -76 -31 vhcurveto
          60 -29 rlineto
          59 40 52 29 42 hhcurveto
          42 35 -31 -60 -115 -100 -148 -83 -69 hvcurveto
          hintmask 01011000
          3 -21 -18 3 -19 hhcurveto
          -73 -46 -83 -16 hvcurveto
          hintmask 00111000
          -28 66 -64 16 17 56 36 47 53 vhcurveto
          hintmask 10011000
          -6 44 91 -88 88 hhcurveto
          endchar
        </CharString>
        <CharString name="twosuperior">
          -102 345 90 -90 119 188 82 hstemhm
          234 141 hintmask 10110000
          401 449 -52 callgsubr
          44 -31 rlineto
          31 23 24 -7 callsubr
          hintmask 01110000
          1 -6 -13 1 -42 callgsubr
          endchar
        </CharString>
        <CharString name="u">
          43 -12 102 346 -20 21 -48 callgsubr
          hintmask 10101100
          88 334 rmoveto
          hintmask 10110100
          -104 callsubr
          hintmask 11001100
          -87 callsubr
        </CharString>
        <CharString name="uacute">
          43 -12 102 617 -48 callgsubr
          hintmask 11011000
          219 -93 callsubr
          -114 -217 -100 callgsubr
        </CharString>
        <CharString name="ucircumflex">
          43 -12 102 614 -48 callgsubr
          hintmask 11011000
          166 -85 callsubr
          -46 -214 -100 callgsubr
        </CharString>
        <CharString name="udieresis">
          43 -12 102 440 146 -34 callgsubr
          -118 167 17 194 -167 167 hintmask 11001010
          368 602 rmoveto
          -92 callgsubr
          -211 hmoveto
          -92 callsubr
          hintmask 11010100
          -69 -268 rmoveto
          hintmask 11100100
          -104 callsubr
          hintmask 11010100
          -87 callsubr
        </CharString>
        <CharString name="ugrave">
          43 -12 102 606 -48 callgsubr
          hintmask 11011000
          498 -78 callsubr
          -384 -165 -100 callgsubr
        </CharString>
        <CharString name="underscore">
          115 0 81 hstem
          563 hmoveto
          3 16 0 48 17 vvcurveto
          -514 hlineto
          -2 -15 -1 -48 -18 vvcurveto
          endchar
        </CharString>
        <CharString name="uni00AD">
          91 234 90 hstem
          493 234 rmoveto
          42 -1 11 -2 37 vhcurveto
          -369 hlineto
          -36 0 -12 3 -42 vhcurveto
          endchar
        </CharString>
        <CharString name="v">
          -72 -12 102 352 -20 hstemhm
          49 168 -155 155 -155 186 hintmask 11010000
          24 409 rmoveto
          29 -35 9 -13 -38 vvcurveto
          hintmask 11100000
          -46 -13 -110 -53 vvcurveto
          -92 39 -34 62 162 135 228 126 61 -31 39 -90 vhcurveto
          0 -45 -52 -10 -94 vhcurveto
          74 -71 rlineto
          -60 -16 -66 -75 -31 hhcurveto
          -12 -3 11 17 hvcurveto
          hintmask 11001000
          54 31 103 73 vvcurveto
          58 -20 36 -74 vhcurveto
          -53 -71 -18 -2 hhcurveto
          endchar
        </CharString>
        <CharString name="w">
          161 -11 101 -81 -21 454 -14 callgsubr
          59 157 -157 187 41 162 -145 145 hintmask 10011001
          304 333 rmoveto
          hintmask 10011010
          -67 -13 -87 -4 -64 vhcurveto
          -14 -18 -22 -12 -15 hhcurveto
          -10 -6 6 25 hvcurveto
          hintmask 10010110
          56 30 101 70 vvcurveto
          59 -21 37 -75 vhcurveto
          -53 -68 -19 -2 hhcurveto
          -3 -16 rlineto
          33 -39 2 -15 -25 -56 -10 -117 -47 vvcurveto
          -94 39 -26 57 55 51 24 36 44 vhcurveto
          hintmask 01101010
          -35 15 34 -26 48 hhcurveto
          143 145 229 127 59 -32 39 -89 hvcurveto
          0 -46 -53 -9 -93 vhcurveto
          73 -72 rlineto
          hintmask 10011001
          -49 -15 -63 -85 -34 hhcurveto
          -11 -5 10 22 hvcurveto
          59 34 123 75 vvcurveto
          38 -9 18 0 -88 -86 -31 -1 -2 vhcurveto
          0 6 -25 -45 vvcurveto
          endchar
        </CharString>
        <CharString name="x">
          -75 -12 102 351 -20 hstem
          34 415 rmoveto
          -3 -15 9 -9 32 -33 7 -18 rlinecurve
          15 -29 20 -55 19 -58 -54 -44 -53 -56 -46 -76 rrcurveto
          -30 40 59 -4 5 hhcurveto
          16 43 28 61 29 34 8 -23 7 -21 8 -20 rrcurveto
          -57 20 29 -17 47 hhcurveto
          93 75 68 0 hvcurveto
          -22 49 rlineto
          0 -29 -15 -14 -19 -12 27 62 -24 vhcurveto
          -6 15 -6 20 -7 23 48 44 48 54 39 73 rrcurveto
          0 -46 28 -50 5 vhcurveto
          -16 -52 -4 -23 -40 -59 -20 70 rcurveline
          -16 52 -27 9 0 vvcurveto
          -93 -3 -61 -11 -33 -9 rrcurveto
          endchar
        </CharString>
        <CharString name="y">
          -4 callsubr
          336 -14 callgsubr
          31 185 -141 67 -67 141 -141 186 hintmask 11100010
          328 407 -40 callgsubr
          0 callsubr
          hintmask 11100001
          43 45 146 73 vvcurveto
          31 -8 12 0 -54 -63 -11 -14 -66 vhcurveto
          4 -14 1 -17 -13 vvcurveto
          hintmask 11011000
          -90 -44 -114 -70 vvcurveto
          -54 26 -40 70 50 59 -24 callsubr
          -90 -20 -104 -32 -80 vvcurveto
          -55 48 -28 66 136 71 121 131 40 -55 callgsubr
          -161 -557 rmoveto
          hintmask 11100100
          -14 -11 9 14 33 57 16 52 9 hvcurveto
          -58 -22 -40 -23 -22 hhcurveto
          endchar
        </CharString>
        <CharString name="yacute">
          -4 callsubr
          608 -20 hstemhm
          31 185 -141 67 hintmask 11110000
          192 -93 callsubr
          153 -144 -40 callgsubr
          0 callsubr
          -11 callsubr
          hintmask 11101000
          4 -14 1 -16 -16 vvcurveto
          hintmask 11110000
          -77 callsubr
          hintmask 11101000
          -25 callsubr
        </CharString>
        <CharString name="ydieresis">
          -4 callsubr
          431 12 callgsubr
          31 185 -141 67 -67 141 -141 186 -132 167 44 167 hintmask 1110000110000000
          340 602 rmoveto
          -92 callgsubr
          -211 hmoveto
          -90 callsubr
          vhcurveto
          hintmask 1111000010000000
          37 -27 27 -53 vhcurveto
          hintmask 1110000110000000
          -65 callsubr
          hvcurveto
          199 -195 -40 callgsubr
          hintmask 1110010010000000
          0 callsubr
          hintmask 1110001010000000
          -11 callsubr
          4 -14 1 -16 -16 vvcurveto
          hintmask 1111000010000000
          -77 callsubr
          hintmask 1110100010000000
          -25 callsubr
        </CharString>
        <CharString name="yen">
          17 21 -21 207 40 0 63 400 -20 hstemhm
          hintmask 11010000
          62 238 rmoveto
          22 3 43 4 47 2 -9 -40 rcurveline
          -115 hlineto
          -2 -13 -1 -15 -11 vvcurveto
          -19 3 -16 0 vhcurveto
          32 4 35 4 35 3 rrcurveto
          -12 -63 -7 -52 -29 vvcurveto
          5 hlineto
          39 111 3 25 38 hvcurveto
          40 3 41 4 40 vhcurveto
          41 -1 42 -2 33 -3 rrcurveto
          0 17 37 2 27 vhcurveto
          -127 hlineto
          7 42 rlineto
          43 56 -2 -1 15 hvcurveto
          hintmask 10110000
          0 17 37 2 27 vhcurveto
          -117 hlineto
          76 122 90 198 32 55 rrcurveto
          22 -41 -81 3 -4 hhcurveto
          -23 -91 -53 -137 -33 -58 rrcurveto
          -5 hlineto
          -9 42 0 105 -11 74 rrcurveto
          -6 42 -27 19 0 vvcurveto
          -80 -80 -9 -8 -48 hvcurveto
          -3 -23 rlineto
          0 45 -33 9 -26 vhcurveto
          25 -74 3 -160 45 -63 rrcurveto
          -122 hlineto
          -2 -14 -1 -14 -12 vvcurveto
          -19 2 -13 0 vhcurveto
          endchar
        </CharString>
        <CharString name="z">
          -74 -26 149 -128 173 143 124 5 -20 hstemhm
          hintmask 10100000
          420 438 rmoveto
          -2 -20 -23 -1 -22 hhcurveto
          hintmask 10010000
          -63 -88 5 -54 hhcurveto
          -27 -58 -3 -18 -14 hvcurveto
          -1 -13 -1 -13 -13 vvcurveto
          -33 4 -40 8 -32 vhcurveto
          hintmask 01100000
          32 55 63 4 66 hhcurveto
          -27 -54 -33 -50 -44 -41 rrcurveto
          1 -10 -10 1 -10 hhcurveto
          -58 -53 -65 -33 -27 49 -48 28 8 24 6 45 42 hvcurveto
          hintmask 10100000
          -18 55 54 -54 59 hhcurveto
          57 45 46 130 13 hvcurveto
          -43 15 rlineto
          -24 -10 -16 -18 -18 hhcurveto
          -38 1 -42 14 -45 12 54 75 58 69 95 110 rrcurveto
          endchar
        </CharString>
        <CharString name="zero">
          118 -12 77 569 76 hstem
          48 196 178 193 vstem
          615 457 rmoveto
          129 -64 124 -143 -218 -142 -179 -277 -147 71 -119 138 258 100 255 214 vhcurveto
          -371 -228 rmoveto
          140 42 265 91 33 12 -45 -64 -169 -49 -291 -80 -35 -14 49 115 vhcurveto
          endchar
        </CharString>
      <CharString index="0">
        -95 callsubr
        -103 callgsubr
        -70 callgsubr
        hvcurveto
        -80 callgsubr
      </CharString>
      <CharString index="1">
        -101 callgsubr
        -34 callsubr
        vhcurveto
        -103 callsubr
        return
      </CharString>
      <CharString index="2">
        -165 -86 -198 -117 vvcurveto
        -79 57 -41 73 71 79 43 42 61 vhcurveto
        -52 8 36 -33 55 hhcurveto
        52 61 19 49 68 hvcurveto
        -21 56 rlineto
        -4 -14 -24 -9 -16 hhcurveto
        -7 -7 1 29 hvcurveto
        99 99 332 116 vvcurveto
        27 -6 7 0 -23 -74 -2 -33 -94 vhcurveto
        1 -11 0 -13 -17 vvcurveto
        -136 -69 -217 -21 -125 vhcurveto
        -20 -35 -40 -16 -29 hhcurveto
        return
      </CharString>
      <CharString index="3">
        -106 callgsubr
        hintmask 01111100
        -102 callgsubr
      </CharString>
      <CharString index="4">
        -134 -77 -145 -140 -112 50 -58 72 42 50 19 37 52 hvcurveto
        -40 12 27 -16 43 hhcurveto
        86 83 66 0 hvcurveto
        -71 callgsubr
        -40 -14 -10 -8 -3 12 18 vhcurveto
        -223 -26 rmoveto
        -14 -13 7 58 return
      </CharString>
      <CharString index="5">
        -13 19 35 -14 24 hhcurveto
        20 22 6 16 5 hvcurveto
        219 588 rmoveto
        1 2 4 1 8 hhcurveto
        4 -16 6 -47 -89 vvcurveto
        -51 -2 -48 -3 -52 vhcurveto
        -137 hlineto
        42 103 42 97 34 101 rrcurveto
        endchar
      </CharString>
      <CharString index="6">
        rmoveto
        20 70 22 65 23 61 rrcurveto
        11 40 26 0 51 hhcurveto
        22 16 -1 -3 14 hvcurveto
        -1 -24 0 -24 -23 vvcurveto
        -94 20 -63 91 56 82 24 43 57 vhcurveto
        -21 57 rlineto
        0 -39 -13 -14 return
      </CharString>
      <CharString index="7">
        10 callsubr
        -104 callsubr
        hintmask 11011000
        -87 callsubr
      </CharString>
      <CharString index="8">
        -74 callsubr
        hintmask 11011100
        -107 callsubr
      </CharString>
      <CharString index="9">
        rmoveto
        98 15 136 22 45 19 rrcurveto
        28 10 10 14 22 6 callsubr
        54 -12 17 vhcurveto
        -93 -53 -94 -37 -109 -49 rrcurveto
        return
      </CharString>
      <CharString index="10">
        -9 -143 -98 -241 -110 vvcurveto
        -66 42 -40 67 52 60 19 49 66 vhcurveto
        -22 56 rlineto
        -6 -15 -23 -7 -16 -53 callsubr
      </CharString>
      <CharString index="11">
        -94 callgsubr
        -6 -5 7 18 vhcurveto
        return
      </CharString>
      <CharString index="12">
        -20 hstem
        20 185 87 160 vstem
        -100 callsubr
        return
      </CharString>
      <CharString index="13">
        -67 -49 -109 -74 vvcurveto
        -69 38 -26 49 60 76 35 31 41 vhcurveto
        -71 callgsubr
        -37 -14 -12 return
      </CharString>
      <CharString index="14">
        -20 hstem
        48 196 234 195 vstem
        -105 callsubr
        return
      </CharString>
      <CharString index="15">
        -91 callgsubr
        -26 27 -54 -65 callsubr
        vhcurveto
        return
      </CharString>
      <CharString index="16">
        -90 callsubr
        37 return
      </CharString>
      <CharString index="17">
        138 107 261 120 vvcurveto
        34 -16 30 0 -160 -63 -59 callgsubr
        11 callsubr
        return
      </CharString>
      <CharString index="18">
        rmoveto
        56 20 80 28 68 13 51 -16 52 -22 51 -21 39 37 rcurveline
        29 -20 -95 112 -40 hhcurveto
        -50 -147 -80 -52 -74 hvcurveto
        return
      </CharString>
      <CharString index="19">
        -80 callsubr
        45 -630 rmoveto
        61 16 57 29 4 hvcurveto
        -35 11 rlineto
        0 -9 -23 -17 vhcurveto
        -20 hlineto
        18 84 13 88 32 vvcurveto
        18 -10 19 0 vhcurveto
        -61 -1 -47 -4 -40 -8 -42 -57 -11 -16 -10 -14 -13 -20 -9 -14 -96 -123 rrcurveto
        -2 -3 -4 -4 -6 vvcurveto
        -18 28 -17 14 vhcurveto
        8 30 23 2 19 hhcurveto
        22 17 -3 -2 18 hvcurveto
        return
      </CharString>
      <CharString index="20">
        -28 34 74 -17 51 hhcurveto
        0 27 36 45 vvcurveto
        88 -101 54 -114 -125 -123 -66 -121 -81 55 -45 71 -19 vhcurveto
        return
      </CharString>
      <CharString index="21">
        -57 callsubr
        hintmask 10111000
        -72 callsubr
        hintmask 01110010
        -86 callsubr
      </CharString>
      <CharString index="22">
        84 86 247 130 vvcurveto
        53 -19 26 0 -154 -63 -4 callgsubr
        42 11 callsubr
        return
      </CharString>
      <CharString index="23">
        740 -98 callgsubr
        return
      </CharString>
      <CharString index="24">
        2 11 12 1 9 hhcurveto
        29 24 -14 -46 -67 -23 -126 -90 -7 -7 0 2 -7 hvcurveto
        25 113 23 101 1 34 rrcurveto
        endchar
      </CharString>
      <CharString index="25">
        rmoveto
        55 -99 -132 62 -45 hhcurveto
        -33 -24 -56 -47 -14 hvcurveto
        93 -18 109 -20 123 -29 rrcurveto
        return
      </CharString>
      <CharString index="26">
        rmoveto
        68 -97 -118 81 -44 hhcurveto
        -33 -27 -59 -47 -16 hvcurveto
        92 -22 99 -27 118 -42 rrcurveto
        return
      </CharString>
      <CharString index="27">
        -23 -85 -13 -96 -2 -62 rrcurveto
        -5 -6 -20 -10 -17 hhcurveto
        endchar
      </CharString>
      <CharString index="28">
        -57 12 -62 14 108 vvcurveto
        62 20 54 44 8 11 -2 -5 11 vhcurveto
        -10 -102 rlineto
        return
      </CharString>
      <CharString index="29">
        rmoveto
        -196 125 -162 251 250 124 161 201 202 -126 158 -245 -251 -128 -165 -199 vhcurveto
        87 1 rmoveto
        160 98 133 194 190 96 -127 -163 -161 -94 -131 -194 -195 -95 131 158 vhcurveto
        endchar
      </CharString>
      <CharString index="30">
        218 7 rmoveto
        31 119 27 185 56 vvcurveto
        54 -15 17 0 -138 -72 -18 0 vhcurveto
        -2 -16 rlineto
        0 40 -45 -33 vvcurveto
        -56 -13 -87 -16 -90 vhcurveto
        -183 -33 -31 -40 -44 hhcurveto
        -35 -32 19 0 hvcurveto
        -27 -43 rlineto
        -46 45 47 -24 63 hhcurveto
        100 65 80 151 40 hvcurveto
        return
      </CharString>
      <CharString index="31">
        rmoveto
        -76 -61 -133 -116 -32 vvcurveto
        -43 142 -128 39 -27 vhcurveto
        45 41 -25 44 -34 68 -17 47 rlinecurve
        22 44 46 69 37 53 rrcurveto
        return
      </CharString>
      <CharString index="32">
        -90 -87 -222 -128 vvcurveto
        -66 36 -34 63 49 64 20 47 69 vhcurveto
        -21 57 rlineto
        -5 -14 -24 -8 -16 hhcurveto
        -10 -3 8 20 hvcurveto
        return
      </CharString>
      <CharString index="33">
        -60 callsubr
        -43 25 9 -11 hvcurveto
        -36 -51 rlineto
        -46 39 78 -46 70 hhcurveto
        125 41 115 103 21 hvcurveto
        16 82 24 188 14 144 rrcurveto
        -1 17 16 0 15 hhcurveto
        return
      </CharString>
      <CharString index="34">
        rmoveto
        12 16 38 35 9 hhcurveto
        -18 -119 -38 -92 -10 -101 rrcurveto
        32 hlineto
        28 53 1 15 35 hvcurveto
        71 64 191 69 vvcurveto
        return
      </CharString>
      <CharString index="35">
        -12 111 -87 -21 229 80 410 -20 return
      </CharString>
      <CharString index="36">
        -18 50 rlineto
        0 return
      </CharString>
      <CharString index="37">
        64 16 138 59 7 14 -2 -7 12 return
      </CharString>
      <CharString index="38">
        0 vhcurveto
        -3 -21 callsubr
        return
      </CharString>
      <CharString index="39">
        224 11 rmoveto
        0 -1 12 25 vvcurveto
        57 27 123 13 69 vhcurveto
        10 13 12 10 -17 callsubr
        44 61 0 vvcurveto
        73 -4 -25 28 -45 hhcurveto
        -38 -38 -35 -33 -29 hvcurveto
        return
      </CharString>
      <CharString index="40">
        rmoveto
        96 180 63 376 82 hvcurveto
        52 238 38 172 84 vvcurveto
        -22 hlineto
        -42 -87 -11 -18 -46 hvcurveto
        -136 -75 -319 -4 -16 vhcurveto
        -24 -45 -42 -12 -28 hhcurveto
        -23 -12 16 34 hvcurveto
        return
      </CharString>
      <CharString index="41">
        rmoveto
        87 23 76 56 6 hvcurveto
        -55 12 rlineto
        -24 -17 -12 -6 -25 hhcurveto
        return
      </CharString>
      <CharString index="42">
        -215 -149 -213 -223 return
      </CharString>
      <CharString index="43">
        -165 -118 -365 -116 vvcurveto
        -11 1 -8 0 54 61 2 15 68 vhcurveto
        74 26 113 28 118 vhcurveto
        12 14 41 20 27 -23 callgsubr
        return
      </CharString>
      <CharString index="44">
        hstemhm
        39 195 -119 119 -119 193 return
      </CharString>
      <CharString index="45">
        -20 hstem
        -48 callsubr
        vstem
        673 442 rmoveto
        return
      </CharString>
      <CharString index="46">
        840 rmoveto
        -55 41 -46 75 76 39 46 55 57 -40 44 -75 -75 -41 -44 -57 vhcurveto
        73 hmoveto
        22 16 16 27 26 13 -16 -22 -21 -13 -16 -26 -27 -16 16 21 vhcurveto
        return
      </CharString>
      <CharString index="47">
        -49 callgsubr
        -35 -31 -49 -49 -183 -76 -37 callgsubr
        return
      </CharString>
      <CharString index="48">
        -21 0 vhcurveto
        -2 -21 callsubr
        43 return
      </CharString>
      <CharString index="49">
        -53 -12 100 144 208 3 -20 return
      </CharString>
      <CharString index="50">
        vvcurveto
        26 -4 17 -5 9 vhcurveto
        -24 -68 -1 -25 -90 hvcurveto
        4 -23 2 -7 -26 vvcurveto
        return
      </CharString>
      <CharString index="51">
        -56 -13 -46 -37 -19 vvcurveto
        hintmask 01110000
        -15 callgsubr
        hintmask 10110000
        -38 callgsubr
      </CharString>
      <CharString index="52">
        vhcurveto
        42 139 15 166 18 103 rrcurveto
        -8 hlineto
        -52 -83 -13 -16 -36 hvcurveto
        return
      </CharString>
      <CharString index="53">
        306 120 rmoveto
        -26 -18 13 37 hvcurveto
        return
      </CharString>
      <CharString index="54">
        -50 callsubr
        -45 -40 callsubr
        return
      </CharString>
      <CharString index="55">
        rmoveto
        -39 14 rlineto
        -18 -11 -8 -10 -23 hhcurveto
        -17 -46 5 7 -30 hvcurveto
        61 38 87 78 72 vvcurveto
        56 -52 43 -74 -83 -42 -50 -44 -31 vhcurveto
        return
      </CharString>
      <CharString index="56">
        501 rmoveto
        48 28 61 35 59 19 42 -20 38 -30 42 -30 42 36 rcurveline
        34 -16 -77 131 -34 hhcurveto
        -49 -122 -92 -64 -66 hvcurveto
        return
      </CharString>
      <CharString index="57">
        -89 callgsubr
        endchar
      </CharString>
      <CharString index="58">
        -3 34 -13 25 0 vvcurveto
        -139 -60 -70 callsubr
        return
      </CharString>
      <CharString index="59">
        -20 -34 callgsubr
        66 184 return
      </CharString>
      <CharString index="60">
        -29 callsubr
        -74 50 5 29 15 -36 callgsubr
        return
      </CharString>
      <CharString index="61">
        -96 callgsubr
        endchar
      </CharString>
      <CharString index="62">
        rmoveto
        -55 19 rlineto
        -46 -23 -16 -6 -25 hhcurveto
        -58 -79 12 14 -54 hvcurveto
        return
      </CharString>
      <CharString index="63">
        -2 callsubr
        72 -63 callsubr
        return
      </CharString>
      <CharString index="64">
        -52 -19 55 61 80 32 93 43 5 4 -1 -1 3 hvcurveto
        endchar
      </CharString>
      <CharString index="65">
        -9 hhcurveto
        -30 -38 -48 -12 -11 31 -39 18 9 36 11 24 37 hvcurveto
        -13 39 53 -31 50 hhcurveto
        43 36 25 79 7 hvcurveto
        return
      </CharString>
      <CharString index="66">
        1 -40 rlineto
        51 -1 35 -6 -50 vvcurveto
        -28 -7 -52 -35 -4 -6 1 2 -5 vhcurveto
        8 53 rlineto
        17 -36 -37 8 -39 hhcurveto
        return
      </CharString>
      <CharString index="67">
        rmoveto
        -14 -95 -15 -112 -14 -92 rrcurveto
        -5 -12 -15 -4 -12 hhcurveto
        return
      </CharString>
      <CharString index="68">
        hstemhm
        41 195 -83 196 46 193 -106 106 -106 198 return
      </CharString>
      <CharString index="69">
        -11 47 96 -80 73 hhcurveto
        82 38 71 120 20 hvcurveto
        endchar
      </CharString>
      <CharString index="70">
        vvcurveto
        -18 3 -14 0 vhcurveto
        8 hlineto
        42 94 2 15 39 hvcurveto
        return
      </CharString>
      <CharString index="71">
        40 31 48 rlinecurve
        -54 29 rlineto
        -35 -35 -78 -115 -67 vvcurveto
        return
      </CharString>
      <CharString index="72">
        -20 hstemhm
        47 198 -91 198 return
      </CharString>
      <CharString index="73">
        -15 callsubr
        -132 187 return
      </CharString>
      <CharString index="74">
        vhcurveto
        -4 -21 callsubr
        return
      </CharString>
      <CharString index="75">
        -82 callgsubr
        endchar
      </CharString>
      <CharString index="76">
        rmoveto
        74 -38 66 -104 -130 -90 -100 -147 -81 45 -61 98 155 64 139 110 vhcurveto
        return
      </CharString>
      <CharString index="77">
        vvcurveto
        -68 43 -30 55 56 79 32 36 42 vhcurveto
        endchar
      </CharString>
      <CharString index="78">
        -31 -41 -36 -12 -25 hhcurveto
        -43 callgsubr
      </CharString>
      <CharString index="79">
        rmoveto
        -24 49 rlineto
        0 -43 -18 -11 -10 -2 13 13 return
      </CharString>
      <CharString index="80">
        32 -12 102 271 82 return
      </CharString>
      <CharString index="81">
        -4 -22 -11 -38 1 -26 rrcurveto
        22 hlineto
        19 66 2 15 33 hvcurveto
        17 3 24 3 13 vhcurveto
        return
      </CharString>
      <CharString index="82">
        rmoveto
        -43 27 -30 52 49 42 37 45 42 -26 30 -52 -48 -44 -34 -47 vhcurveto
        endchar
      </CharString>
      <CharString index="83">
        190 -12 111 -84 -21 585 131 return
      </CharString>
      <CharString index="84">
        hhcurveto
        14 10 -6 -16 -30 -38 -33 -66 -17 hvcurveto
        return
      </CharString>
      <CharString index="85">
        -15 -39 63 -55 rcurveline
        -2 -17 -11 return
      </CharString>
      <CharString index="86">
        -20 hstemhm
        20 188 60 174 return
      </CharString>
      <CharString index="87">
        98 -69 -21 354 93 291 -20 hstemhm
        25 184 -66 185 41 182 return
      </CharString>
      <CharString index="88">
        75 hmoveto
        25 16 18 29 28 13 -18 -25 -25 -13 -18 -28 -29 -16 18 25 vhcurveto
        return
      </CharString>
      <CharString index="89">
        -184 -101 -277 -105 -30 callgsubr
      </CharString>
      <CharString index="90">
        rmoveto
        -36 21 -27 45 41 36 35 37 36 -21 26 -45 -41 -36 -31 -40 vhcurveto
        return
      </CharString>
      <CharString index="91" raw="1">
        15301d0b   
      </CharString>
      <CharString index="92">
        -50 54 -62 16 35 37 26 53 40 vhcurveto
        return
      </CharString>
      <CharString index="93">
        -20 21 -20 hstemhm
        return
      </CharString>
      <CharString index="94">
        -138 -8 callsubr
        return
      </CharString>
      <CharString index="95">
        -203 -21 958 -20 hstem
        return
      </CharString>
      <CharString index="96">
        60 15 41 33 42 vvcurveto
        45 -49 36 -82 -80 -53 -38 -35 -25 vhcurveto
        return
      </CharString>
      <CharString index="97">
        -11 0 hvcurveto
        2 -43 14 -42 0 vvcurveto
        return
      </CharString>
      <CharString index="98">
        61 44 105 67 vvcurveto
        59 -34 39 -56 -49 -59 -29 -20 -35 vhcurveto
        return
      </CharString>
      <CharString index="99">
        -20 hstemhm
        338 182 return
      </CharString>
      <CharString index="100">
        -12 100 282 73 return
      </CharString>
      <CharString index="101">
        36 46 37 return
      </CharString>
      <CharString index="102">
        -1 4 16 0 38 hhcurveto
        35 47 7 12 32 hvcurveto
        return
      </CharString>
      <CharString index="103">
        -21 -69 callgsubr
        return
      </CharString>
      <CharString index="104">
        9 -21 27 -21 return
      </CharString>
      <CharString index="105">
        -6 callgsubr
        -24 27 -49 -41 -38 -32 -42 vhcurveto
        return
      </CharString>
      <CharString index="106">
        43 90 -32 42 hhcurveto
        return
      </CharString>
      <CharString index="107">
        45 92 -29 45 hhcurveto
        return
      </CharString>
      <CharString index="108">
        143 47 65 60 63 -50 25 -54 6 return
      </CharString>
      <CharString index="109">
        -20 hstemhm
        25 185 -84 84 -84 185 return
      </CharString>
      <CharString index="110">
        -20 hstemhm
        41 195 -83 return
      </CharString>
      <CharString index="111">
        hintmask 10110000
        510 173 rmoveto
        -46 -52 return
      </CharString>
      <CharString index="112">
        -43 30 -30 45 54 36 37 46 37 return
      </CharString>
      <CharString index="113">
        rrcurveto
        2 14 14 1 11 hhcurveto
        endchar
      </CharString>
      <CharString index="114">
        rlineto
        -10 32 30 -4 22 hhcurveto
        1 return
      </CharString>
      <CharString index="115">
        56 vvcurveto
        54 -17 17 0 -138 return
      </CharString>
      <CharString index="116">
        -203 -21 212 return
      </CharString>
      <CharString index="117">
        18 -12 20 0 vhcurveto
        return
      </CharString>
      <CharString index="118">
        105 546 71 return
      </CharString>
      <CharString index="119">
        146 hstemhm
        return
      </CharString>
</ttFont>
